<mxfile host="drawio-plugin" modified="2024-06-06T03:27:14.864Z" agent="Mozilla/5.0 (Windows NT 10.0; Win64; x64) AppleWebKit/537.36 (KHTML, like Gecko) Chrome/111.0.0.0 Safari/537.36" etag="frZ80pG_wQUXeG30nY3-" version="22.1.22" type="embed">
  <diagram name="第 1 页" id="-L21mTjG8m8KFZ9dBWi8">
    <mxGraphModel dx="1071" dy="414" grid="1" gridSize="10" guides="1" tooltips="1" connect="1" arrows="1" fold="1" page="1" pageScale="1" pageWidth="827" pageHeight="1169" math="0" shadow="0">
      <root>
        <mxCell id="0" />
        <mxCell id="1" parent="0" />
        <mxCell id="dTiAx6UK3Yj_eX1VGu5U-1" value="&lt;div data-t=&quot;flow&quot; data-processon-v=&quot;{&amp;quot;list&amp;quot;:[{&amp;quot;id&amp;quot;:&amp;quot;gLDWOsaupT811578&amp;quot;,&amp;quot;name&amp;quot;:&amp;quot;rectangle&amp;quot;,&amp;quot;title&amp;quot;:&amp;quot;矩形&amp;quot;,&amp;quot;category&amp;quot;:&amp;quot;basic&amp;quot;,&amp;quot;group&amp;quot;:&amp;quot;&amp;quot;,&amp;quot;groupName&amp;quot;:null,&amp;quot;locked&amp;quot;:false,&amp;quot;link&amp;quot;:&amp;quot;&amp;quot;,&amp;quot;children&amp;quot;:[],&amp;quot;parent&amp;quot;:&amp;quot;&amp;quot;,&amp;quot;resizeDir&amp;quot;:[&amp;quot;tl&amp;quot;,&amp;quot;tr&amp;quot;,&amp;quot;br&amp;quot;,&amp;quot;bl&amp;quot;,&amp;quot;l&amp;quot;,&amp;quot;t&amp;quot;,&amp;quot;r&amp;quot;,&amp;quot;b&amp;quot;],&amp;quot;attribute&amp;quot;:{&amp;quot;container&amp;quot;:false,&amp;quot;visible&amp;quot;:true,&amp;quot;rotatable&amp;quot;:true,&amp;quot;linkable&amp;quot;:true,&amp;quot;collapsable&amp;quot;:false,&amp;quot;collapsed&amp;quot;:false,&amp;quot;fixedLink&amp;quot;:false,&amp;quot;markerOffset&amp;quot;:5},&amp;quot;dataAttributes&amp;quot;:[{&amp;quot;name&amp;quot;:&amp;quot;序号&amp;quot;,&amp;quot;type&amp;quot;:&amp;quot;number&amp;quot;,&amp;quot;value&amp;quot;:&amp;quot;&amp;quot;,&amp;quot;category&amp;quot;:&amp;quot;default&amp;quot;,&amp;quot;id&amp;quot;:&amp;quot;JlQPgyejlZ394632&amp;quot;},{&amp;quot;name&amp;quot;:&amp;quot;名称&amp;quot;,&amp;quot;type&amp;quot;:&amp;quot;string&amp;quot;,&amp;quot;value&amp;quot;:&amp;quot;&amp;quot;,&amp;quot;category&amp;quot;:&amp;quot;default&amp;quot;,&amp;quot;id&amp;quot;:&amp;quot;lJrlAexkfx180489&amp;quot;},{&amp;quot;name&amp;quot;:&amp;quot;所有者&amp;quot;,&amp;quot;type&amp;quot;:&amp;quot;string&amp;quot;,&amp;quot;value&amp;quot;:&amp;quot;&amp;quot;,&amp;quot;category&amp;quot;:&amp;quot;default&amp;quot;,&amp;quot;id&amp;quot;:&amp;quot;VkzHucsKEB582434&amp;quot;},{&amp;quot;name&amp;quot;:&amp;quot;连接&amp;quot;,&amp;quot;type&amp;quot;:&amp;quot;link&amp;quot;,&amp;quot;value&amp;quot;:&amp;quot;&amp;quot;,&amp;quot;category&amp;quot;:&amp;quot;default&amp;quot;,&amp;quot;id&amp;quot;:&amp;quot;MulWnHFosX288640&amp;quot;},{&amp;quot;name&amp;quot;:&amp;quot;便笺&amp;quot;,&amp;quot;type&amp;quot;:&amp;quot;string&amp;quot;,&amp;quot;value&amp;quot;:&amp;quot;&amp;quot;,&amp;quot;category&amp;quot;:&amp;quot;default&amp;quot;,&amp;quot;id&amp;quot;:&amp;quot;utEHZRjKOc581117&amp;quot;}],&amp;quot;props&amp;quot;:{&amp;quot;x&amp;quot;:1031.958333333334,&amp;quot;y&amp;quot;:5993.1662264972165,&amp;quot;w&amp;quot;:96,&amp;quot;h&amp;quot;:54,&amp;quot;zindex&amp;quot;:820,&amp;quot;angle&amp;quot;:0},&amp;quot;shapeStyle&amp;quot;:{&amp;quot;alpha&amp;quot;:1},&amp;quot;lineStyle&amp;quot;:{&amp;quot;lineStyle&amp;quot;:&amp;quot;dashed&amp;quot;,&amp;quot;lineColor&amp;quot;:&amp;quot;0,127,255&amp;quot;,&amp;quot;lineWidth&amp;quot;:1.5},&amp;quot;fillStyle&amp;quot;:{&amp;quot;type&amp;quot;:&amp;quot;none&amp;quot;},&amp;quot;theme&amp;quot;:{},&amp;quot;path&amp;quot;:[{&amp;quot;actions&amp;quot;:[{&amp;quot;action&amp;quot;:&amp;quot;move&amp;quot;,&amp;quot;x&amp;quot;:&amp;quot;0&amp;quot;,&amp;quot;y&amp;quot;:&amp;quot;0&amp;quot;},{&amp;quot;action&amp;quot;:&amp;quot;line&amp;quot;,&amp;quot;x&amp;quot;:&amp;quot;w&amp;quot;,&amp;quot;y&amp;quot;:&amp;quot;0&amp;quot;},{&amp;quot;action&amp;quot;:&amp;quot;line&amp;quot;,&amp;quot;x&amp;quot;:&amp;quot;w&amp;quot;,&amp;quot;y&amp;quot;:&amp;quot;h&amp;quot;},{&amp;quot;action&amp;quot;:&amp;quot;line&amp;quot;,&amp;quot;x&amp;quot;:&amp;quot;0&amp;quot;,&amp;quot;y&amp;quot;:&amp;quot;h&amp;quot;},{&amp;quot;action&amp;quot;:&amp;quot;close&amp;quot;}]}],&amp;quot;fontStyle&amp;quot;:{},&amp;quot;textBlock&amp;quot;:[{&amp;quot;position&amp;quot;:{&amp;quot;x&amp;quot;:10,&amp;quot;y&amp;quot;:0,&amp;quot;w&amp;quot;:&amp;quot;w-20&amp;quot;,&amp;quot;h&amp;quot;:&amp;quot;h&amp;quot;},&amp;quot;text&amp;quot;:&amp;quot;server&amp;quot;}],&amp;quot;anchors&amp;quot;:[{&amp;quot;x&amp;quot;:&amp;quot;w/2&amp;quot;,&amp;quot;y&amp;quot;:&amp;quot;0&amp;quot;},{&amp;quot;x&amp;quot;:&amp;quot;w/2&amp;quot;,&amp;quot;y&amp;quot;:&amp;quot;h&amp;quot;},{&amp;quot;x&amp;quot;:&amp;quot;0&amp;quot;,&amp;quot;y&amp;quot;:&amp;quot;h/2&amp;quot;},{&amp;quot;x&amp;quot;:&amp;quot;w&amp;quot;,&amp;quot;y&amp;quot;:&amp;quot;h/2&amp;quot;}]},{&amp;quot;id&amp;quot;:&amp;quot;mkiXFNtNtC384921&amp;quot;,&amp;quot;name&amp;quot;:&amp;quot;rectangle&amp;quot;,&amp;quot;title&amp;quot;:&amp;quot;矩形&amp;quot;,&amp;quot;category&amp;quot;:&amp;quot;basic&amp;quot;,&amp;quot;group&amp;quot;:&amp;quot;&amp;quot;,&amp;quot;groupName&amp;quot;:null,&amp;quot;locked&amp;quot;:false,&amp;quot;link&amp;quot;:&amp;quot;&amp;quot;,&amp;quot;children&amp;quot;:[],&amp;quot;parent&amp;quot;:&amp;quot;&amp;quot;,&amp;quot;resizeDir&amp;quot;:[&amp;quot;tl&amp;quot;,&amp;quot;tr&amp;quot;,&amp;quot;br&amp;quot;,&amp;quot;bl&amp;quot;,&amp;quot;l&amp;quot;,&amp;quot;t&amp;quot;,&amp;quot;r&amp;quot;,&amp;quot;b&amp;quot;],&amp;quot;attribute&amp;quot;:{&amp;quot;container&amp;quot;:false,&amp;quot;visible&amp;quot;:true,&amp;quot;rotatable&amp;quot;:true,&amp;quot;linkable&amp;quot;:true,&amp;quot;collapsable&amp;quot;:false,&amp;quot;collapsed&amp;quot;:false,&amp;quot;fixedLink&amp;quot;:false,&amp;quot;markerOffset&amp;quot;:5},&amp;quot;dataAttributes&amp;quot;:[{&amp;quot;name&amp;quot;:&amp;quot;序号&amp;quot;,&amp;quot;type&amp;quot;:&amp;quot;number&amp;quot;,&amp;quot;value&amp;quot;:&amp;quot;&amp;quot;,&amp;quot;category&amp;quot;:&amp;quot;default&amp;quot;,&amp;quot;id&amp;quot;:&amp;quot;jzGMtOKTHk629086&amp;quot;},{&amp;quot;name&amp;quot;:&amp;quot;名称&amp;quot;,&amp;quot;type&amp;quot;:&amp;quot;string&amp;quot;,&amp;quot;value&amp;quot;:&amp;quot;&amp;quot;,&amp;quot;category&amp;quot;:&amp;quot;default&amp;quot;,&amp;quot;id&amp;quot;:&amp;quot;kflUMVjPjo455238&amp;quot;},{&amp;quot;name&amp;quot;:&amp;quot;所有者&amp;quot;,&amp;quot;type&amp;quot;:&amp;quot;string&amp;quot;,&amp;quot;value&amp;quot;:&amp;quot;&amp;quot;,&amp;quot;category&amp;quot;:&amp;quot;default&amp;quot;,&amp;quot;id&amp;quot;:&amp;quot;ezDJBjnsQo268732&amp;quot;},{&amp;quot;name&amp;quot;:&amp;quot;连接&amp;quot;,&amp;quot;type&amp;quot;:&amp;quot;link&amp;quot;,&amp;quot;value&amp;quot;:&amp;quot;&amp;quot;,&amp;quot;category&amp;quot;:&amp;quot;default&amp;quot;,&amp;quot;id&amp;quot;:&amp;quot;yipCTJTPiG073978&amp;quot;},{&amp;quot;name&amp;quot;:&amp;quot;便笺&amp;quot;,&amp;quot;type&amp;quot;:&amp;quot;string&amp;quot;,&amp;quot;value&amp;quot;:&amp;quot;&amp;quot;,&amp;quot;category&amp;quot;:&amp;quot;default&amp;quot;,&amp;quot;id&amp;quot;:&amp;quot;FYYSMQBkkN711731&amp;quot;}],&amp;quot;props&amp;quot;:{&amp;quot;x&amp;quot;:1219.3073569473072,&amp;quot;y&amp;quot;:5993.1662264972165,&amp;quot;w&amp;quot;:96,&amp;quot;h&amp;quot;:54,&amp;quot;zindex&amp;quot;:822,&amp;quot;angle&amp;quot;:0},&amp;quot;shapeStyle&amp;quot;:{&amp;quot;alpha&amp;quot;:1},&amp;quot;lineStyle&amp;quot;:{&amp;quot;lineStyle&amp;quot;:&amp;quot;dashed&amp;quot;,&amp;quot;lineColor&amp;quot;:&amp;quot;0,127,255&amp;quot;,&amp;quot;lineWidth&amp;quot;:1.5},&amp;quot;fillStyle&amp;quot;:{&amp;quot;type&amp;quot;:&amp;quot;none&amp;quot;},&amp;quot;theme&amp;quot;:{},&amp;quot;path&amp;quot;:[{&amp;quot;actions&amp;quot;:[{&amp;quot;action&amp;quot;:&amp;quot;move&amp;quot;,&amp;quot;x&amp;quot;:&amp;quot;0&amp;quot;,&amp;quot;y&amp;quot;:&amp;quot;0&amp;quot;},{&amp;quot;action&amp;quot;:&amp;quot;line&amp;quot;,&amp;quot;x&amp;quot;:&amp;quot;w&amp;quot;,&amp;quot;y&amp;quot;:&amp;quot;0&amp;quot;},{&amp;quot;action&amp;quot;:&amp;quot;line&amp;quot;,&amp;quot;x&amp;quot;:&amp;quot;w&amp;quot;,&amp;quot;y&amp;quot;:&amp;quot;h&amp;quot;},{&amp;quot;action&amp;quot;:&amp;quot;line&amp;quot;,&amp;quot;x&amp;quot;:&amp;quot;0&amp;quot;,&amp;quot;y&amp;quot;:&amp;quot;h&amp;quot;},{&amp;quot;action&amp;quot;:&amp;quot;close&amp;quot;}]}],&amp;quot;fontStyle&amp;quot;:{},&amp;quot;textBlock&amp;quot;:[{&amp;quot;position&amp;quot;:{&amp;quot;x&amp;quot;:10,&amp;quot;y&amp;quot;:0,&amp;quot;w&amp;quot;:&amp;quot;w-20&amp;quot;,&amp;quot;h&amp;quot;:&amp;quot;h&amp;quot;},&amp;quot;text&amp;quot;:&amp;quot;/api/img/map&amp;quot;}],&amp;quot;anchors&amp;quot;:[{&amp;quot;x&amp;quot;:&amp;quot;w/2&amp;quot;,&amp;quot;y&amp;quot;:&amp;quot;0&amp;quot;},{&amp;quot;x&amp;quot;:&amp;quot;w/2&amp;quot;,&amp;quot;y&amp;quot;:&amp;quot;h&amp;quot;},{&amp;quot;x&amp;quot;:&amp;quot;0&amp;quot;,&amp;quot;y&amp;quot;:&amp;quot;h/2&amp;quot;},{&amp;quot;x&amp;quot;:&amp;quot;w&amp;quot;,&amp;quot;y&amp;quot;:&amp;quot;h/2&amp;quot;}]},{&amp;quot;id&amp;quot;:&amp;quot;tqsBhdkUDv802608&amp;quot;,&amp;quot;name&amp;quot;:&amp;quot;rectangle&amp;quot;,&amp;quot;title&amp;quot;:&amp;quot;矩形&amp;quot;,&amp;quot;category&amp;quot;:&amp;quot;basic&amp;quot;,&amp;quot;group&amp;quot;:&amp;quot;&amp;quot;,&amp;quot;groupName&amp;quot;:null,&amp;quot;locked&amp;quot;:false,&amp;quot;link&amp;quot;:&amp;quot;&amp;quot;,&amp;quot;children&amp;quot;:[],&amp;quot;parent&amp;quot;:&amp;quot;&amp;quot;,&amp;quot;resizeDir&amp;quot;:[&amp;quot;tl&amp;quot;,&amp;quot;tr&amp;quot;,&amp;quot;br&amp;quot;,&amp;quot;bl&amp;quot;,&amp;quot;l&amp;quot;,&amp;quot;t&amp;quot;,&amp;quot;r&amp;quot;,&amp;quot;b&amp;quot;],&amp;quot;attribute&amp;quot;:{&amp;quot;container&amp;quot;:false,&amp;quot;visible&amp;quot;:true,&amp;quot;rotatable&amp;quot;:true,&amp;quot;linkable&amp;quot;:true,&amp;quot;collapsable&amp;quot;:false,&amp;quot;collapsed&amp;quot;:false,&amp;quot;fixedLink&amp;quot;:false,&amp;quot;markerOffset&amp;quot;:5},&amp;quot;dataAttributes&amp;quot;:[{&amp;quot;name&amp;quot;:&amp;quot;序号&amp;quot;,&amp;quot;type&amp;quot;:&amp;quot;number&amp;quot;,&amp;quot;value&amp;quot;:&amp;quot;&amp;quot;,&amp;quot;category&amp;quot;:&amp;quot;default&amp;quot;,&amp;quot;id&amp;quot;:&amp;quot;jdxUozwaSQ570325&amp;quot;},{&amp;quot;name&amp;quot;:&amp;quot;名称&amp;quot;,&amp;quot;type&amp;quot;:&amp;quot;string&amp;quot;,&amp;quot;value&amp;quot;:&amp;quot;&amp;quot;,&amp;quot;category&amp;quot;:&amp;quot;default&amp;quot;,&amp;quot;id&amp;quot;:&amp;quot;rTCBzQEubs560028&amp;quot;},{&amp;quot;name&amp;quot;:&amp;quot;所有者&amp;quot;,&amp;quot;type&amp;quot;:&amp;quot;string&amp;quot;,&amp;quot;value&amp;quot;:&amp;quot;&amp;quot;,&amp;quot;category&amp;quot;:&amp;quot;default&amp;quot;,&amp;quot;id&amp;quot;:&amp;quot;sYzEkrAxce783136&amp;quot;},{&amp;quot;name&amp;quot;:&amp;quot;连接&amp;quot;,&amp;quot;type&amp;quot;:&amp;quot;link&amp;quot;,&amp;quot;value&amp;quot;:&amp;quot;&amp;quot;,&amp;quot;category&amp;quot;:&amp;quot;default&amp;quot;,&amp;quot;id&amp;quot;:&amp;quot;TfEGiNmEIs718461&amp;quot;},{&amp;quot;name&amp;quot;:&amp;quot;便笺&amp;quot;,&amp;quot;type&amp;quot;:&amp;quot;string&amp;quot;,&amp;quot;value&amp;quot;:&amp;quot;&amp;quot;,&amp;quot;category&amp;quot;:&amp;quot;default&amp;quot;,&amp;quot;id&amp;quot;:&amp;quot;xcfJwuvGuI685793&amp;quot;}],&amp;quot;props&amp;quot;:{&amp;quot;x&amp;quot;:1394.7851513387081,&amp;quot;y&amp;quot;:5993.1662264972165,&amp;quot;w&amp;quot;:96,&amp;quot;h&amp;quot;:54,&amp;quot;zindex&amp;quot;:824,&amp;quot;angle&amp;quot;:0},&amp;quot;shapeStyle&amp;quot;:{&amp;quot;alpha&amp;quot;:1},&amp;quot;lineStyle&amp;quot;:{&amp;quot;lineStyle&amp;quot;:&amp;quot;dashed&amp;quot;,&amp;quot;lineColor&amp;quot;:&amp;quot;0,127,255&amp;quot;,&amp;quot;lineWidth&amp;quot;:1.5},&amp;quot;fillStyle&amp;quot;:{&amp;quot;type&amp;quot;:&amp;quot;none&amp;quot;},&amp;quot;theme&amp;quot;:{},&amp;quot;path&amp;quot;:[{&amp;quot;actions&amp;quot;:[{&amp;quot;action&amp;quot;:&amp;quot;move&amp;quot;,&amp;quot;x&amp;quot;:&amp;quot;0&amp;quot;,&amp;quot;y&amp;quot;:&amp;quot;0&amp;quot;},{&amp;quot;action&amp;quot;:&amp;quot;line&amp;quot;,&amp;quot;x&amp;quot;:&amp;quot;w&amp;quot;,&amp;quot;y&amp;quot;:&amp;quot;0&amp;quot;},{&amp;quot;action&amp;quot;:&amp;quot;line&amp;quot;,&amp;quot;x&amp;quot;:&amp;quot;w&amp;quot;,&amp;quot;y&amp;quot;:&amp;quot;h&amp;quot;},{&amp;quot;action&amp;quot;:&amp;quot;line&amp;quot;,&amp;quot;x&amp;quot;:&amp;quot;0&amp;quot;,&amp;quot;y&amp;quot;:&amp;quot;h&amp;quot;},{&amp;quot;action&amp;quot;:&amp;quot;close&amp;quot;}]}],&amp;quot;fontStyle&amp;quot;:{},&amp;quot;textBlock&amp;quot;:[{&amp;quot;position&amp;quot;:{&amp;quot;x&amp;quot;:10,&amp;quot;y&amp;quot;:0,&amp;quot;w&amp;quot;:&amp;quot;w-20&amp;quot;,&amp;quot;h&amp;quot;:&amp;quot;h&amp;quot;},&amp;quot;text&amp;quot;:&amp;quot;pull&amp;quot;}],&amp;quot;anchors&amp;quot;:[{&amp;quot;x&amp;quot;:&amp;quot;w/2&amp;quot;,&amp;quot;y&amp;quot;:&amp;quot;0&amp;quot;},{&amp;quot;x&amp;quot;:&amp;quot;w/2&amp;quot;,&amp;quot;y&amp;quot;:&amp;quot;h&amp;quot;},{&amp;quot;x&amp;quot;:&amp;quot;0&amp;quot;,&amp;quot;y&amp;quot;:&amp;quot;h/2&amp;quot;},{&amp;quot;x&amp;quot;:&amp;quot;w&amp;quot;,&amp;quot;y&amp;quot;:&amp;quot;h/2&amp;quot;}]},{&amp;quot;id&amp;quot;:&amp;quot;mYsXDIhQIK173431&amp;quot;,&amp;quot;name&amp;quot;:&amp;quot;linker&amp;quot;,&amp;quot;text&amp;quot;:&amp;quot;&amp;quot;,&amp;quot;group&amp;quot;:&amp;quot;&amp;quot;,&amp;quot;linkerType&amp;quot;:&amp;quot;broken&amp;quot;,&amp;quot;points&amp;quot;:[{&amp;quot;x&amp;quot;:1529.6904354106546,&amp;quot;y&amp;quot;:6020.1662264972165},{&amp;quot;x&amp;quot;:1529.6904354106546,&amp;quot;y&amp;quot;:6020.1662264972165}],&amp;quot;locked&amp;quot;:false,&amp;quot;dataAttributes&amp;quot;:[],&amp;quot;props&amp;quot;:{&amp;quot;zindex&amp;quot;:825},&amp;quot;lineStyle&amp;quot;:{&amp;quot;lineWidth&amp;quot;:1.5},&amp;quot;from&amp;quot;:{&amp;quot;x&amp;quot;:1490.7851513387081,&amp;quot;y&amp;quot;:6020.1662264972165,&amp;quot;id&amp;quot;:&amp;quot;tqsBhdkUDv802608&amp;quot;,&amp;quot;angle&amp;quot;:3.1415926535897936},&amp;quot;to&amp;quot;:{&amp;quot;id&amp;quot;:&amp;quot;zcKKXTDiIj012993&amp;quot;,&amp;quot;x&amp;quot;:1568.5957194826008,&amp;quot;y&amp;quot;:6020.1662264972165,&amp;quot;angle&amp;quot;:0},&amp;quot;textBlock&amp;quot;:[]},{&amp;quot;id&amp;quot;:&amp;quot;zcKKXTDiIj012993&amp;quot;,&amp;quot;name&amp;quot;:&amp;quot;rectangle&amp;quot;,&amp;quot;title&amp;quot;:&amp;quot;矩形&amp;quot;,&amp;quot;category&amp;quot;:&amp;quot;basic&amp;quot;,&amp;quot;group&amp;quot;:&amp;quot;&amp;quot;,&amp;quot;groupName&amp;quot;:null,&amp;quot;locked&amp;quot;:false,&amp;quot;link&amp;quot;:&amp;quot;&amp;quot;,&amp;quot;children&amp;quot;:[],&amp;quot;parent&amp;quot;:&amp;quot;&amp;quot;,&amp;quot;resizeDir&amp;quot;:[&amp;quot;tl&amp;quot;,&amp;quot;tr&amp;quot;,&amp;quot;br&amp;quot;,&amp;quot;bl&amp;quot;,&amp;quot;l&amp;quot;,&amp;quot;t&amp;quot;,&amp;quot;r&amp;quot;,&amp;quot;b&amp;quot;],&amp;quot;attribute&amp;quot;:{&amp;quot;container&amp;quot;:false,&amp;quot;visible&amp;quot;:true,&amp;quot;rotatable&amp;quot;:true,&amp;quot;linkable&amp;quot;:true,&amp;quot;collapsable&amp;quot;:false,&amp;quot;collapsed&amp;quot;:false,&amp;quot;fixedLink&amp;quot;:false,&amp;quot;markerOffset&amp;quot;:5},&amp;quot;dataAttributes&amp;quot;:[{&amp;quot;name&amp;quot;:&amp;quot;序号&amp;quot;,&amp;quot;type&amp;quot;:&amp;quot;number&amp;quot;,&amp;quot;value&amp;quot;:&amp;quot;&amp;quot;,&amp;quot;category&amp;quot;:&amp;quot;default&amp;quot;,&amp;quot;id&amp;quot;:&amp;quot;pKFKpEVAXo606710&amp;quot;},{&amp;quot;name&amp;quot;:&amp;quot;名称&amp;quot;,&amp;quot;type&amp;quot;:&amp;quot;string&amp;quot;,&amp;quot;value&amp;quot;:&amp;quot;&amp;quot;,&amp;quot;category&amp;quot;:&amp;quot;default&amp;quot;,&amp;quot;id&amp;quot;:&amp;quot;LpFBngFqFs144904&amp;quot;},{&amp;quot;name&amp;quot;:&amp;quot;所有者&amp;quot;,&amp;quot;type&amp;quot;:&amp;quot;string&amp;quot;,&amp;quot;value&amp;quot;:&amp;quot;&amp;quot;,&amp;quot;category&amp;quot;:&amp;quot;default&amp;quot;,&amp;quot;id&amp;quot;:&amp;quot;kJJqJiPbGR620993&amp;quot;},{&amp;quot;name&amp;quot;:&amp;quot;连接&amp;quot;,&amp;quot;type&amp;quot;:&amp;quot;link&amp;quot;,&amp;quot;value&amp;quot;:&amp;quot;&amp;quot;,&amp;quot;category&amp;quot;:&amp;quot;default&amp;quot;,&amp;quot;id&amp;quot;:&amp;quot;rAIGsifuyB153885&amp;quot;},{&amp;quot;name&amp;quot;:&amp;quot;便笺&amp;quot;,&amp;quot;type&amp;quot;:&amp;quot;string&amp;quot;,&amp;quot;value&amp;quot;:&amp;quot;&amp;quot;,&amp;quot;category&amp;quot;:&amp;quot;default&amp;quot;,&amp;quot;id&amp;quot;:&amp;quot;gHHdcnSkzm344141&amp;quot;}],&amp;quot;props&amp;quot;:{&amp;quot;x&amp;quot;:1566.4943931549149,&amp;quot;y&amp;quot;:5993.1662264972165,&amp;quot;w&amp;quot;:96,&amp;quot;h&amp;quot;:54,&amp;quot;zindex&amp;quot;:826,&amp;quot;angle&amp;quot;:0},&amp;quot;shapeStyle&amp;quot;:{&amp;quot;alpha&amp;quot;:1},&amp;quot;lineStyle&amp;quot;:{&amp;quot;lineStyle&amp;quot;:&amp;quot;dashed&amp;quot;,&amp;quot;lineColor&amp;quot;:&amp;quot;0,127,255&amp;quot;,&amp;quot;lineWidth&amp;quot;:1.5},&amp;quot;fillStyle&amp;quot;:{&amp;quot;type&amp;quot;:&amp;quot;none&amp;quot;},&amp;quot;theme&amp;quot;:{},&amp;quot;path&amp;quot;:[{&amp;quot;actions&amp;quot;:[{&amp;quot;action&amp;quot;:&amp;quot;move&amp;quot;,&amp;quot;x&amp;quot;:&amp;quot;0&amp;quot;,&amp;quot;y&amp;quot;:&amp;quot;0&amp;quot;},{&amp;quot;action&amp;quot;:&amp;quot;line&amp;quot;,&amp;quot;x&amp;quot;:&amp;quot;w&amp;quot;,&amp;quot;y&amp;quot;:&amp;quot;0&amp;quot;},{&amp;quot;action&amp;quot;:&amp;quot;line&amp;quot;,&amp;quot;x&amp;quot;:&amp;quot;w&amp;quot;,&amp;quot;y&amp;quot;:&amp;quot;h&amp;quot;},{&amp;quot;action&amp;quot;:&amp;quot;line&amp;quot;,&amp;quot;x&amp;quot;:&amp;quot;0&amp;quot;,&amp;quot;y&amp;quot;:&amp;quot;h&amp;quot;},{&amp;quot;action&amp;quot;:&amp;quot;close&amp;quot;}]}],&amp;quot;fontStyle&amp;quot;:{},&amp;quot;textBlock&amp;quot;:[{&amp;quot;position&amp;quot;:{&amp;quot;x&amp;quot;:10,&amp;quot;y&amp;quot;:0,&amp;quot;w&amp;quot;:&amp;quot;w-20&amp;quot;,&amp;quot;h&amp;quot;:&amp;quot;h&amp;quot;},&amp;quot;text&amp;quot;:&amp;quot;save&amp;quot;}],&amp;quot;anchors&amp;quot;:[{&amp;quot;x&amp;quot;:&amp;quot;w/2&amp;quot;,&amp;quot;y&amp;quot;:&amp;quot;0&amp;quot;},{&amp;quot;x&amp;quot;:&amp;quot;w/2&amp;quot;,&amp;quot;y&amp;quot;:&amp;quot;h&amp;quot;},{&amp;quot;x&amp;quot;:&amp;quot;0&amp;quot;,&amp;quot;y&amp;quot;:&amp;quot;h/2&amp;quot;},{&amp;quot;x&amp;quot;:&amp;quot;w&amp;quot;,&amp;quot;y&amp;quot;:&amp;quot;h/2&amp;quot;}]},{&amp;quot;id&amp;quot;:&amp;quot;lmqvLzfnQI868989&amp;quot;,&amp;quot;name&amp;quot;:&amp;quot;linker&amp;quot;,&amp;quot;text&amp;quot;:&amp;quot;&amp;quot;,&amp;quot;group&amp;quot;:&amp;quot;&amp;quot;,&amp;quot;linkerType&amp;quot;:&amp;quot;broken&amp;quot;,&amp;quot;points&amp;quot;:[{&amp;quot;x&amp;quot;:1702.4943931549149,&amp;quot;y&amp;quot;:6020.1662264972165},{&amp;quot;x&amp;quot;:1702.4943931549149,&amp;quot;y&amp;quot;:6020.1662264972165}],&amp;quot;locked&amp;quot;:false,&amp;quot;dataAttributes&amp;quot;:[],&amp;quot;props&amp;quot;:{&amp;quot;zindex&amp;quot;:827},&amp;quot;lineStyle&amp;quot;:{&amp;quot;lineWidth&amp;quot;:1.5},&amp;quot;from&amp;quot;:{&amp;quot;x&amp;quot;:1662.4943931549149,&amp;quot;y&amp;quot;:6020.1662264972165,&amp;quot;id&amp;quot;:&amp;quot;zcKKXTDiIj012993&amp;quot;,&amp;quot;angle&amp;quot;:3.1415926535897936},&amp;quot;to&amp;quot;:{&amp;quot;id&amp;quot;:&amp;quot;NHBoHYEhZG973536&amp;quot;,&amp;quot;x&amp;quot;:1742.4943931549149,&amp;quot;y&amp;quot;:6020.1662264972165,&amp;quot;angle&amp;quot;:0},&amp;quot;textBlock&amp;quot;:[]},{&amp;quot;id&amp;quot;:&amp;quot;NHBoHYEhZG973536&amp;quot;,&amp;quot;name&amp;quot;:&amp;quot;rectangle&amp;quot;,&amp;quot;title&amp;quot;:&amp;quot;矩形&amp;quot;,&amp;quot;category&amp;quot;:&amp;quot;basic&amp;quot;,&amp;quot;group&amp;quot;:&amp;quot;&amp;quot;,&amp;quot;groupName&amp;quot;:null,&amp;quot;locked&amp;quot;:false,&amp;quot;link&amp;quot;:&amp;quot;&amp;quot;,&amp;quot;children&amp;quot;:[],&amp;quot;parent&amp;quot;:&amp;quot;&amp;quot;,&amp;quot;resizeDir&amp;quot;:[&amp;quot;tl&amp;quot;,&amp;quot;tr&amp;quot;,&amp;quot;br&amp;quot;,&amp;quot;bl&amp;quot;,&amp;quot;l&amp;quot;,&amp;quot;t&amp;quot;,&amp;quot;r&amp;quot;,&amp;quot;b&amp;quot;],&amp;quot;attribute&amp;quot;:{&amp;quot;container&amp;quot;:false,&amp;quot;visible&amp;quot;:true,&amp;quot;rotatable&amp;quot;:true,&amp;quot;linkable&amp;quot;:true,&amp;quot;collapsable&amp;quot;:false,&amp;quot;collapsed&amp;quot;:false,&amp;quot;fixedLink&amp;quot;:false,&amp;quot;markerOffset&amp;quot;:5},&amp;quot;dataAttributes&amp;quot;:[{&amp;quot;name&amp;quot;:&amp;quot;序号&amp;quot;,&amp;quot;type&amp;quot;:&amp;quot;number&amp;quot;,&amp;quot;value&amp;quot;:&amp;quot;&amp;quot;,&amp;quot;category&amp;quot;:&amp;quot;default&amp;quot;,&amp;quot;id&amp;quot;:&amp;quot;yqxCstjIiS526929&amp;quot;},{&amp;quot;name&amp;quot;:&amp;quot;名称&amp;quot;,&amp;quot;type&amp;quot;:&amp;quot;string&amp;quot;,&amp;quot;value&amp;quot;:&amp;quot;&amp;quot;,&amp;quot;category&amp;quot;:&amp;quot;default&amp;quot;,&amp;quot;id&amp;quot;:&amp;quot;jNrZlpwCDW651354&amp;quot;},{&amp;quot;name&amp;quot;:&amp;quot;所有者&amp;quot;,&amp;quot;type&amp;quot;:&amp;quot;string&amp;quot;,&amp;quot;value&amp;quot;:&amp;quot;&amp;quot;,&amp;quot;category&amp;quot;:&amp;quot;default&amp;quot;,&amp;quot;id&amp;quot;:&amp;quot;RpJHCDtCUj533326&amp;quot;},{&amp;quot;name&amp;quot;:&amp;quot;连接&amp;quot;,&amp;quot;type&amp;quot;:&amp;quot;link&amp;quot;,&amp;quot;value&amp;quot;:&amp;quot;&amp;quot;,&amp;quot;category&amp;quot;:&amp;quot;default&amp;quot;,&amp;quot;id&amp;quot;:&amp;quot;HUySdbFgjN357966&amp;quot;},{&amp;quot;name&amp;quot;:&amp;quot;便笺&amp;quot;,&amp;quot;type&amp;quot;:&amp;quot;string&amp;quot;,&amp;quot;value&amp;quot;:&amp;quot;&amp;quot;,&amp;quot;category&amp;quot;:&amp;quot;default&amp;quot;,&amp;quot;id&amp;quot;:&amp;quot;lzyiTPvmgU723733&amp;quot;}],&amp;quot;props&amp;quot;:{&amp;quot;x&amp;quot;:1743.8227028176677,&amp;quot;y&amp;quot;:5993.1662264972165,&amp;quot;w&amp;quot;:96,&amp;quot;h&amp;quot;:54,&amp;quot;zindex&amp;quot;:828,&amp;quot;angle&amp;quot;:0},&amp;quot;shapeStyle&amp;quot;:{&amp;quot;alpha&amp;quot;:1},&amp;quot;lineStyle&amp;quot;:{&amp;quot;lineStyle&amp;quot;:&amp;quot;dashed&amp;quot;,&amp;quot;lineColor&amp;quot;:&amp;quot;0,127,255&amp;quot;,&amp;quot;lineWidth&amp;quot;:1.5},&amp;quot;fillStyle&amp;quot;:{&amp;quot;type&amp;quot;:&amp;quot;none&amp;quot;},&amp;quot;theme&amp;quot;:{},&amp;quot;path&amp;quot;:[{&amp;quot;actions&amp;quot;:[{&amp;quot;action&amp;quot;:&amp;quot;move&amp;quot;,&amp;quot;x&amp;quot;:&amp;quot;0&amp;quot;,&amp;quot;y&amp;quot;:&amp;quot;0&amp;quot;},{&amp;quot;action&amp;quot;:&amp;quot;line&amp;quot;,&amp;quot;x&amp;quot;:&amp;quot;w&amp;quot;,&amp;quot;y&amp;quot;:&amp;quot;0&amp;quot;},{&amp;quot;action&amp;quot;:&amp;quot;line&amp;quot;,&amp;quot;x&amp;quot;:&amp;quot;w&amp;quot;,&amp;quot;y&amp;quot;:&amp;quot;h&amp;quot;},{&amp;quot;action&amp;quot;:&amp;quot;line&amp;quot;,&amp;quot;x&amp;quot;:&amp;quot;0&amp;quot;,&amp;quot;y&amp;quot;:&amp;quot;h&amp;quot;},{&amp;quot;action&amp;quot;:&amp;quot;close&amp;quot;}]}],&amp;quot;fontStyle&amp;quot;:{},&amp;quot;textBlock&amp;quot;:[{&amp;quot;position&amp;quot;:{&amp;quot;x&amp;quot;:10,&amp;quot;y&amp;quot;:0,&amp;quot;w&amp;quot;:&amp;quot;w-20&amp;quot;,&amp;quot;h&amp;quot;:&amp;quot;h&amp;quot;},&amp;quot;text&amp;quot;:&amp;quot;upload-oss&amp;quot;}],&amp;quot;anchors&amp;quot;:[{&amp;quot;x&amp;quot;:&amp;quot;w/2&amp;quot;,&amp;quot;y&amp;quot;:&amp;quot;0&amp;quot;},{&amp;quot;x&amp;quot;:&amp;quot;w/2&amp;quot;,&amp;quot;y&amp;quot;:&amp;quot;h&amp;quot;},{&amp;quot;x&amp;quot;:&amp;quot;0&amp;quot;,&amp;quot;y&amp;quot;:&amp;quot;h/2&amp;quot;},{&amp;quot;x&amp;quot;:&amp;quot;w&amp;quot;,&amp;quot;y&amp;quot;:&amp;quot;h/2&amp;quot;}]},{&amp;quot;id&amp;quot;:&amp;quot;CAiiVMFEOw481836&amp;quot;,&amp;quot;name&amp;quot;:&amp;quot;rectangle&amp;quot;,&amp;quot;title&amp;quot;:&amp;quot;矩形&amp;quot;,&amp;quot;category&amp;quot;:&amp;quot;basic&amp;quot;,&amp;quot;group&amp;quot;:&amp;quot;&amp;quot;,&amp;quot;groupName&amp;quot;:null,&amp;quot;locked&amp;quot;:false,&amp;quot;link&amp;quot;:&amp;quot;&amp;quot;,&amp;quot;children&amp;quot;:[],&amp;quot;parent&amp;quot;:&amp;quot;&amp;quot;,&amp;quot;resizeDir&amp;quot;:[&amp;quot;tl&amp;quot;,&amp;quot;tr&amp;quot;,&amp;quot;br&amp;quot;,&amp;quot;bl&amp;quot;,&amp;quot;l&amp;quot;,&amp;quot;t&amp;quot;,&amp;quot;r&amp;quot;,&amp;quot;b&amp;quot;],&amp;quot;attribute&amp;quot;:{&amp;quot;container&amp;quot;:false,&amp;quot;visible&amp;quot;:true,&amp;quot;rotatable&amp;quot;:true,&amp;quot;linkable&amp;quot;:true,&amp;quot;collapsable&amp;quot;:false,&amp;quot;collapsed&amp;quot;:false,&amp;quot;fixedLink&amp;quot;:false,&amp;quot;markerOffset&amp;quot;:5},&amp;quot;dataAttributes&amp;quot;:[{&amp;quot;name&amp;quot;:&amp;quot;序号&amp;quot;,&amp;quot;type&amp;quot;:&amp;quot;number&amp;quot;,&amp;quot;value&amp;quot;:&amp;quot;&amp;quot;,&amp;quot;category&amp;quot;:&amp;quot;default&amp;quot;,&amp;quot;id&amp;quot;:&amp;quot;qEOQkocVPa667042&amp;quot;},{&amp;quot;name&amp;quot;:&amp;quot;名称&amp;quot;,&amp;quot;type&amp;quot;:&amp;quot;string&amp;quot;,&amp;quot;value&amp;quot;:&amp;quot;&amp;quot;,&amp;quot;category&amp;quot;:&amp;quot;default&amp;quot;,&amp;quot;id&amp;quot;:&amp;quot;tbHspujUCz965720&amp;quot;},{&amp;quot;name&amp;quot;:&amp;quot;所有者&amp;quot;,&amp;quot;type&amp;quot;:&amp;quot;string&amp;quot;,&amp;quot;value&amp;quot;:&amp;quot;&amp;quot;,&amp;quot;category&amp;quot;:&amp;quot;default&amp;quot;,&amp;quot;id&amp;quot;:&amp;quot;yRTUzduDqO823215&amp;quot;},{&amp;quot;name&amp;quot;:&amp;quot;连接&amp;quot;,&amp;quot;type&amp;quot;:&amp;quot;link&amp;quot;,&amp;quot;value&amp;quot;:&amp;quot;&amp;quot;,&amp;quot;category&amp;quot;:&amp;quot;default&amp;quot;,&amp;quot;id&amp;quot;:&amp;quot;MSFtCUqmKH562570&amp;quot;},{&amp;quot;name&amp;quot;:&amp;quot;便笺&amp;quot;,&amp;quot;type&amp;quot;:&amp;quot;string&amp;quot;,&amp;quot;value&amp;quot;:&amp;quot;&amp;quot;,&amp;quot;category&amp;quot;:&amp;quot;default&amp;quot;,&amp;quot;id&amp;quot;:&amp;quot;sGZTbLRglK238028&amp;quot;}],&amp;quot;props&amp;quot;:{&amp;quot;x&amp;quot;:1219.3073569473072,&amp;quot;y&amp;quot;:5814.723216131977,&amp;quot;w&amp;quot;:96,&amp;quot;h&amp;quot;:61.446432263953284,&amp;quot;zindex&amp;quot;:829,&amp;quot;angle&amp;quot;:0},&amp;quot;shapeStyle&amp;quot;:{&amp;quot;alpha&amp;quot;:1},&amp;quot;lineStyle&amp;quot;:{&amp;quot;lineStyle&amp;quot;:&amp;quot;dashed&amp;quot;,&amp;quot;lineColor&amp;quot;:&amp;quot;0,127,255&amp;quot;,&amp;quot;lineWidth&amp;quot;:1.5},&amp;quot;fillStyle&amp;quot;:{&amp;quot;type&amp;quot;:&amp;quot;none&amp;quot;},&amp;quot;theme&amp;quot;:{},&amp;quot;path&amp;quot;:[{&amp;quot;actions&amp;quot;:[{&amp;quot;action&amp;quot;:&amp;quot;move&amp;quot;,&amp;quot;x&amp;quot;:&amp;quot;0&amp;quot;,&amp;quot;y&amp;quot;:&amp;quot;0&amp;quot;},{&amp;quot;action&amp;quot;:&amp;quot;line&amp;quot;,&amp;quot;x&amp;quot;:&amp;quot;w&amp;quot;,&amp;quot;y&amp;quot;:&amp;quot;0&amp;quot;},{&amp;quot;action&amp;quot;:&amp;quot;line&amp;quot;,&amp;quot;x&amp;quot;:&amp;quot;w&amp;quot;,&amp;quot;y&amp;quot;:&amp;quot;h&amp;quot;},{&amp;quot;action&amp;quot;:&amp;quot;line&amp;quot;,&amp;quot;x&amp;quot;:&amp;quot;0&amp;quot;,&amp;quot;y&amp;quot;:&amp;quot;h&amp;quot;},{&amp;quot;action&amp;quot;:&amp;quot;close&amp;quot;}]}],&amp;quot;fontStyle&amp;quot;:{},&amp;quot;textBlock&amp;quot;:[{&amp;quot;position&amp;quot;:{&amp;quot;x&amp;quot;:10,&amp;quot;y&amp;quot;:0,&amp;quot;w&amp;quot;:&amp;quot;w-20&amp;quot;,&amp;quot;h&amp;quot;:&amp;quot;h&amp;quot;},&amp;quot;text&amp;quot;:&amp;quot;client&amp;quot;}],&amp;quot;anchors&amp;quot;:[{&amp;quot;x&amp;quot;:&amp;quot;w/2&amp;quot;,&amp;quot;y&amp;quot;:&amp;quot;0&amp;quot;},{&amp;quot;x&amp;quot;:&amp;quot;w/2&amp;quot;,&amp;quot;y&amp;quot;:&amp;quot;h&amp;quot;},{&amp;quot;x&amp;quot;:&amp;quot;0&amp;quot;,&amp;quot;y&amp;quot;:&amp;quot;h/2&amp;quot;},{&amp;quot;x&amp;quot;:&amp;quot;w&amp;quot;,&amp;quot;y&amp;quot;:&amp;quot;h/2&amp;quot;}]},{&amp;quot;id&amp;quot;:&amp;quot;myAlXrzNeX034290&amp;quot;,&amp;quot;name&amp;quot;:&amp;quot;linker&amp;quot;,&amp;quot;text&amp;quot;:&amp;quot;&amp;quot;,&amp;quot;group&amp;quot;:&amp;quot;&amp;quot;,&amp;quot;linkerType&amp;quot;:&amp;quot;broken&amp;quot;,&amp;quot;points&amp;quot;:[{&amp;quot;x&amp;quot;:1173.6328451403206,&amp;quot;y&amp;quot;:6020.1662264972165},{&amp;quot;x&amp;quot;:1173.6328451403206,&amp;quot;y&amp;quot;:6020.1662264972165}],&amp;quot;locked&amp;quot;:false,&amp;quot;dataAttributes&amp;quot;:[],&amp;quot;props&amp;quot;:{&amp;quot;zindex&amp;quot;:830},&amp;quot;lineStyle&amp;quot;:{&amp;quot;lineWidth&amp;quot;:1.5},&amp;quot;from&amp;quot;:{&amp;quot;x&amp;quot;:1127.958333333334,&amp;quot;y&amp;quot;:6020.1662264972165,&amp;quot;angle&amp;quot;:3.1415926535897922,&amp;quot;id&amp;quot;:&amp;quot;gLDWOsaupT811578&amp;quot;},&amp;quot;to&amp;quot;:{&amp;quot;id&amp;quot;:&amp;quot;mkiXFNtNtC384921&amp;quot;,&amp;quot;x&amp;quot;:1219.3073569473072,&amp;quot;y&amp;quot;:6020.1662264972165,&amp;quot;angle&amp;quot;:0},&amp;quot;textBlock&amp;quot;:[]},{&amp;quot;id&amp;quot;:&amp;quot;bqFmehkaDk237506&amp;quot;,&amp;quot;name&amp;quot;:&amp;quot;linker&amp;quot;,&amp;quot;text&amp;quot;:&amp;quot;&amp;quot;,&amp;quot;group&amp;quot;:&amp;quot;&amp;quot;,&amp;quot;linkerType&amp;quot;:&amp;quot;broken&amp;quot;,&amp;quot;points&amp;quot;:[{&amp;quot;x&amp;quot;:1355.0462541430077,&amp;quot;y&amp;quot;:6020.1662264972165},{&amp;quot;x&amp;quot;:1355.0462541430077,&amp;quot;y&amp;quot;:6020.1662264972165}],&amp;quot;locked&amp;quot;:false,&amp;quot;dataAttributes&amp;quot;:[],&amp;quot;props&amp;quot;:{&amp;quot;zindex&amp;quot;:831},&amp;quot;lineStyle&amp;quot;:{&amp;quot;lineWidth&amp;quot;:1.5},&amp;quot;from&amp;quot;:{&amp;quot;x&amp;quot;:1315.3073569473072,&amp;quot;y&amp;quot;:6020.1662264972165,&amp;quot;angle&amp;quot;:3.1415926535897922,&amp;quot;id&amp;quot;:&amp;quot;mkiXFNtNtC384921&amp;quot;},&amp;quot;to&amp;quot;:{&amp;quot;id&amp;quot;:&amp;quot;tqsBhdkUDv802608&amp;quot;,&amp;quot;x&amp;quot;:1394.7851513387081,&amp;quot;y&amp;quot;:6020.1662264972165,&amp;quot;angle&amp;quot;:0},&amp;quot;textBlock&amp;quot;:[]},{&amp;quot;id&amp;quot;:&amp;quot;XfyGZSgwnG752422&amp;quot;,&amp;quot;name&amp;quot;:&amp;quot;linker&amp;quot;,&amp;quot;text&amp;quot;:&amp;quot;传入img/map&amp;quot;,&amp;quot;group&amp;quot;:&amp;quot;&amp;quot;,&amp;quot;linkerType&amp;quot;:&amp;quot;broken&amp;quot;,&amp;quot;points&amp;quot;:[{&amp;quot;x&amp;quot;:1267.3073569473072,&amp;quot;y&amp;quot;:5934.667937446573},{&amp;quot;x&amp;quot;:1267.3073569473072,&amp;quot;y&amp;quot;:5934.667937446573}],&amp;quot;locked&amp;quot;:false,&amp;quot;dataAttributes&amp;quot;:[],&amp;quot;props&amp;quot;:{&amp;quot;zindex&amp;quot;:832},&amp;quot;lineStyle&amp;quot;:{&amp;quot;lineWidth&amp;quot;:1.5},&amp;quot;from&amp;quot;:{&amp;quot;x&amp;quot;:1267.3073569473072,&amp;quot;y&amp;quot;:5876.16964839593,&amp;quot;id&amp;quot;:&amp;quot;CAiiVMFEOw481836&amp;quot;,&amp;quot;angle&amp;quot;:4.71238898038469},&amp;quot;to&amp;quot;:{&amp;quot;id&amp;quot;:&amp;quot;mkiXFNtNtC384921&amp;quot;,&amp;quot;x&amp;quot;:1267.3073569473072,&amp;quot;y&amp;quot;:5993.1662264972165,&amp;quot;angle&amp;quot;:1.570796326794897},&amp;quot;textBlock&amp;quot;:[{&amp;quot;text&amp;quot;:&amp;quot;传入img/map&amp;quot;,&amp;quot;location&amp;quot;:0.5602414438949933}],&amp;quot;textPos&amp;quot;:{&amp;quot;x&amp;quot;:1267.3073569473074,&amp;quot;y&amp;quot;:5940.517766351637,&amp;quot;t&amp;quot;:42}},{&amp;quot;id&amp;quot;:&amp;quot;FNHkJrFRMW895601&amp;quot;,&amp;quot;name&amp;quot;:&amp;quot;linker&amp;quot;,&amp;quot;text&amp;quot;:&amp;quot;&amp;quot;,&amp;quot;group&amp;quot;:&amp;quot;&amp;quot;,&amp;quot;linkerType&amp;quot;:&amp;quot;broken&amp;quot;,&amp;quot;points&amp;quot;:[{&amp;quot;x&amp;quot;:1335,&amp;quot;y&amp;quot;:6007,&amp;quot;fixed&amp;quot;:true},{&amp;quot;x&amp;quot;:1335,&amp;quot;y&amp;quot;:5957,&amp;quot;fixed&amp;quot;:true},{&amp;quot;x&amp;quot;:1607.8336650548385,&amp;quot;y&amp;quot;:5957}],&amp;quot;locked&amp;quot;:false,&amp;quot;dataAttributes&amp;quot;:[],&amp;quot;props&amp;quot;:{&amp;quot;zindex&amp;quot;:833},&amp;quot;lineStyle&amp;quot;:{&amp;quot;lineWidth&amp;quot;:1.5},&amp;quot;from&amp;quot;:{&amp;quot;angle&amp;quot;:3.141592653589793,&amp;quot;x&amp;quot;:1315,&amp;quot;y&amp;quot;:6007,&amp;quot;id&amp;quot;:&amp;quot;mkiXFNtNtC384921&amp;quot;},&amp;quot;to&amp;quot;:{&amp;quot;id&amp;quot;:&amp;quot;ElKQDuCzPd562072&amp;quot;,&amp;quot;x&amp;quot;:1607.8336650548385,&amp;quot;y&amp;quot;:5872.446432263954,&amp;quot;angle&amp;quot;:4.71238898038469},&amp;quot;textBlock&amp;quot;:[]},{&amp;quot;id&amp;quot;:&amp;quot;ElKQDuCzPd562072&amp;quot;,&amp;quot;name&amp;quot;:&amp;quot;rectangle&amp;quot;,&amp;quot;title&amp;quot;:&amp;quot;矩形&amp;quot;,&amp;quot;category&amp;quot;:&amp;quot;basic&amp;quot;,&amp;quot;group&amp;quot;:&amp;quot;&amp;quot;,&amp;quot;groupName&amp;quot;:null,&amp;quot;locked&amp;quot;:false,&amp;quot;link&amp;quot;:&amp;quot;&amp;quot;,&amp;quot;children&amp;quot;:[],&amp;quot;parent&amp;quot;:&amp;quot;&amp;quot;,&amp;quot;resizeDir&amp;quot;:[&amp;quot;tl&amp;quot;,&amp;quot;tr&amp;quot;,&amp;quot;br&amp;quot;,&amp;quot;bl&amp;quot;,&amp;quot;l&amp;quot;,&amp;quot;t&amp;quot;,&amp;quot;r&amp;quot;,&amp;quot;b&amp;quot;],&amp;quot;attribute&amp;quot;:{&amp;quot;container&amp;quot;:false,&amp;quot;visible&amp;quot;:true,&amp;quot;rotatable&amp;quot;:true,&amp;quot;linkable&amp;quot;:true,&amp;quot;collapsable&amp;quot;:false,&amp;quot;collapsed&amp;quot;:false,&amp;quot;fixedLink&amp;quot;:false,&amp;quot;markerOffset&amp;quot;:5},&amp;quot;dataAttributes&amp;quot;:[{&amp;quot;name&amp;quot;:&amp;quot;序号&amp;quot;,&amp;quot;type&amp;quot;:&amp;quot;number&amp;quot;,&amp;quot;value&amp;quot;:&amp;quot;&amp;quot;,&amp;quot;category&amp;quot;:&amp;quot;default&amp;quot;,&amp;quot;id&amp;quot;:&amp;quot;GuXZcgZBFC746062&amp;quot;},{&amp;quot;name&amp;quot;:&amp;quot;名称&amp;quot;,&amp;quot;type&amp;quot;:&amp;quot;string&amp;quot;,&amp;quot;value&amp;quot;:&amp;quot;&amp;quot;,&amp;quot;category&amp;quot;:&amp;quot;default&amp;quot;,&amp;quot;id&amp;quot;:&amp;quot;dQVKrpAFdz501817&amp;quot;},{&amp;quot;name&amp;quot;:&amp;quot;所有者&amp;quot;,&amp;quot;type&amp;quot;:&amp;quot;string&amp;quot;,&amp;quot;value&amp;quot;:&amp;quot;&amp;quot;,&amp;quot;category&amp;quot;:&amp;quot;default&amp;quot;,&amp;quot;id&amp;quot;:&amp;quot;kEPCoOZJYf526780&amp;quot;},{&amp;quot;name&amp;quot;:&amp;quot;连接&amp;quot;,&amp;quot;type&amp;quot;:&amp;quot;link&amp;quot;,&amp;quot;value&amp;quot;:&amp;quot;&amp;quot;,&amp;quot;category&amp;quot;:&amp;quot;default&amp;quot;,&amp;quot;id&amp;quot;:&amp;quot;LzFSdFNNpK307714&amp;quot;},{&amp;quot;name&amp;quot;:&amp;quot;便笺&amp;quot;,&amp;quot;type&amp;quot;:&amp;quot;string&amp;quot;,&amp;quot;value&amp;quot;:&amp;quot;&amp;quot;,&amp;quot;category&amp;quot;:&amp;quot;default&amp;quot;,&amp;quot;id&amp;quot;:&amp;quot;GIddAeIInh844619&amp;quot;}],&amp;quot;props&amp;quot;:{&amp;quot;x&amp;quot;:1559.8336650548385,&amp;quot;y&amp;quot;:5818.446432263954,&amp;quot;w&amp;quot;:96,&amp;quot;h&amp;quot;:54,&amp;quot;zindex&amp;quot;:834,&amp;quot;angle&amp;quot;:0},&amp;quot;shapeStyle&amp;quot;:{&amp;quot;alpha&amp;quot;:1},&amp;quot;lineStyle&amp;quot;:{&amp;quot;lineStyle&amp;quot;:&amp;quot;dashed&amp;quot;,&amp;quot;lineColor&amp;quot;:&amp;quot;0,127,255&amp;quot;,&amp;quot;lineWidth&amp;quot;:1.5},&amp;quot;fillStyle&amp;quot;:{&amp;quot;type&amp;quot;:&amp;quot;none&amp;quot;},&amp;quot;theme&amp;quot;:{},&amp;quot;path&amp;quot;:[{&amp;quot;actions&amp;quot;:[{&amp;quot;action&amp;quot;:&amp;quot;move&amp;quot;,&amp;quot;x&amp;quot;:&amp;quot;0&amp;quot;,&amp;quot;y&amp;quot;:&amp;quot;0&amp;quot;},{&amp;quot;action&amp;quot;:&amp;quot;line&amp;quot;,&amp;quot;x&amp;quot;:&amp;quot;w&amp;quot;,&amp;quot;y&amp;quot;:&amp;quot;0&amp;quot;},{&amp;quot;action&amp;quot;:&amp;quot;line&amp;quot;,&amp;quot;x&amp;quot;:&amp;quot;w&amp;quot;,&amp;quot;y&amp;quot;:&amp;quot;h&amp;quot;},{&amp;quot;action&amp;quot;:&amp;quot;line&amp;quot;,&amp;quot;x&amp;quot;:&amp;quot;0&amp;quot;,&amp;quot;y&amp;quot;:&amp;quot;h&amp;quot;},{&amp;quot;action&amp;quot;:&amp;quot;close&amp;quot;}]}],&amp;quot;fontStyle&amp;quot;:{},&amp;quot;textBlock&amp;quot;:[{&amp;quot;position&amp;quot;:{&amp;quot;x&amp;quot;:10,&amp;quot;y&amp;quot;:0,&amp;quot;w&amp;quot;:&amp;quot;w-20&amp;quot;,&amp;quot;h&amp;quot;:&amp;quot;h&amp;quot;},&amp;quot;text&amp;quot;:&amp;quot;oss-url&amp;quot;}],&amp;quot;anchors&amp;quot;:[{&amp;quot;x&amp;quot;:&amp;quot;w/2&amp;quot;,&amp;quot;y&amp;quot;:&amp;quot;0&amp;quot;},{&amp;quot;x&amp;quot;:&amp;quot;w/2&amp;quot;,&amp;quot;y&amp;quot;:&amp;quot;h&amp;quot;},{&amp;quot;x&amp;quot;:&amp;quot;0&amp;quot;,&amp;quot;y&amp;quot;:&amp;quot;h/2&amp;quot;},{&amp;quot;x&amp;quot;:&amp;quot;w&amp;quot;,&amp;quot;y&amp;quot;:&amp;quot;h/2&amp;quot;}]},{&amp;quot;id&amp;quot;:&amp;quot;FYEkpxFewa563072&amp;quot;,&amp;quot;name&amp;quot;:&amp;quot;linker&amp;quot;,&amp;quot;text&amp;quot;:&amp;quot;对象地址&amp;quot;,&amp;quot;group&amp;quot;:&amp;quot;&amp;quot;,&amp;quot;linkerType&amp;quot;:&amp;quot;broken&amp;quot;,&amp;quot;points&amp;quot;:[{&amp;quot;x&amp;quot;:1791.8227028176677,&amp;quot;y&amp;quot;:5845.446432263954}],&amp;quot;locked&amp;quot;:false,&amp;quot;dataAttributes&amp;quot;:[],&amp;quot;props&amp;quot;:{&amp;quot;zindex&amp;quot;:835},&amp;quot;lineStyle&amp;quot;:{&amp;quot;lineWidth&amp;quot;:1.5},&amp;quot;from&amp;quot;:{&amp;quot;x&amp;quot;:1791.8227028176677,&amp;quot;y&amp;quot;:5993.1662264972165,&amp;quot;angle&amp;quot;:1.570796326794897,&amp;quot;id&amp;quot;:&amp;quot;NHBoHYEhZG973536&amp;quot;},&amp;quot;to&amp;quot;:{&amp;quot;id&amp;quot;:&amp;quot;ElKQDuCzPd562072&amp;quot;,&amp;quot;x&amp;quot;:1655.8336650548385,&amp;quot;y&amp;quot;:5845.446432263954,&amp;quot;angle&amp;quot;:3.1415926535897922},&amp;quot;textBlock&amp;quot;:[{&amp;quot;text&amp;quot;:&amp;quot;对象地址&amp;quot;,&amp;quot;location&amp;quot;:0.6892365516968615}],&amp;quot;textPos&amp;quot;:{&amp;quot;x&amp;quot;:1744.2265396006774,&amp;quot;y&amp;quot;:5845.446432263954,&amp;quot;t&amp;quot;:27}},{&amp;quot;id&amp;quot;:&amp;quot;RVEvTeDcik758558&amp;quot;,&amp;quot;name&amp;quot;:&amp;quot;linker&amp;quot;,&amp;quot;text&amp;quot;:&amp;quot;返回&amp;quot;,&amp;quot;group&amp;quot;:&amp;quot;&amp;quot;,&amp;quot;linkerType&amp;quot;:&amp;quot;broken&amp;quot;,&amp;quot;points&amp;quot;:[{&amp;quot;x&amp;quot;:1437.5705110010729,&amp;quot;y&amp;quot;:5845.446432263954},{&amp;quot;x&amp;quot;:1437.5705110010729,&amp;quot;y&amp;quot;:5845.446432263954}],&amp;quot;locked&amp;quot;:false,&amp;quot;dataAttributes&amp;quot;:[],&amp;quot;props&amp;quot;:{&amp;quot;zindex&amp;quot;:836},&amp;quot;lineStyle&amp;quot;:{&amp;quot;lineWidth&amp;quot;:1.5},&amp;quot;from&amp;quot;:{&amp;quot;x&amp;quot;:1559.8336650548385,&amp;quot;y&amp;quot;:5845.446432263954,&amp;quot;angle&amp;quot;:0,&amp;quot;id&amp;quot;:&amp;quot;ElKQDuCzPd562072&amp;quot;},&amp;quot;to&amp;quot;:{&amp;quot;id&amp;quot;:&amp;quot;CAiiVMFEOw481836&amp;quot;,&amp;quot;x&amp;quot;:1315.3073569473072,&amp;quot;y&amp;quot;:5845.446432263954,&amp;quot;angle&amp;quot;:3.1415926535897922},&amp;quot;textBlock&amp;quot;:[{&amp;quot;text&amp;quot;:&amp;quot;返回&amp;quot;,&amp;quot;location&amp;quot;:0.6536460894201662}],&amp;quot;textPos&amp;quot;:{&amp;quot;x&amp;quot;:1400.891564784943,&amp;quot;y&amp;quot;:5845.446432263954,&amp;quot;t&amp;quot;:46}},{&amp;quot;id&amp;quot;:&amp;quot;JyzNnQQjBZ207900&amp;quot;,&amp;quot;name&amp;quot;:&amp;quot;linker&amp;quot;,&amp;quot;text&amp;quot;:&amp;quot;&amp;quot;,&amp;quot;group&amp;quot;:&amp;quot;&amp;quot;,&amp;quot;linkerType&amp;quot;:&amp;quot;broken&amp;quot;,&amp;quot;points&amp;quot;:[{&amp;quot;x&amp;quot;:1267.3073569473072,&amp;quot;y&amp;quot;:5771.611608065989},{&amp;quot;x&amp;quot;:1267.3073569473072,&amp;quot;y&amp;quot;:5771.611608065989}],&amp;quot;locked&amp;quot;:false,&amp;quot;dataAttributes&amp;quot;:[],&amp;quot;props&amp;quot;:{&amp;quot;zindex&amp;quot;:837},&amp;quot;lineStyle&amp;quot;:{&amp;quot;lineWidth&amp;quot;:1.5},&amp;quot;from&amp;quot;:{&amp;quot;x&amp;quot;:1267.3073569473072,&amp;quot;y&amp;quot;:5814.723216131977,&amp;quot;id&amp;quot;:&amp;quot;CAiiVMFEOw481836&amp;quot;,&amp;quot;angle&amp;quot;:1.5707963267948963},&amp;quot;to&amp;quot;:{&amp;quot;id&amp;quot;:&amp;quot;oWIDGPhlWJ457018&amp;quot;,&amp;quot;x&amp;quot;:1267.3073569473072,&amp;quot;y&amp;quot;:5728.5,&amp;quot;angle&amp;quot;:4.71238898038469},&amp;quot;textBlock&amp;quot;:[]},{&amp;quot;id&amp;quot;:&amp;quot;oWIDGPhlWJ457018&amp;quot;,&amp;quot;name&amp;quot;:&amp;quot;rectangle&amp;quot;,&amp;quot;title&amp;quot;:&amp;quot;矩形&amp;quot;,&amp;quot;category&amp;quot;:&amp;quot;basic&amp;quot;,&amp;quot;group&amp;quot;:&amp;quot;&amp;quot;,&amp;quot;groupName&amp;quot;:null,&amp;quot;locked&amp;quot;:false,&amp;quot;link&amp;quot;:&amp;quot;&amp;quot;,&amp;quot;children&amp;quot;:[],&amp;quot;parent&amp;quot;:&amp;quot;&amp;quot;,&amp;quot;resizeDir&amp;quot;:[&amp;quot;tl&amp;quot;,&amp;quot;tr&amp;quot;,&amp;quot;br&amp;quot;,&amp;quot;bl&amp;quot;,&amp;quot;l&amp;quot;,&amp;quot;t&amp;quot;,&amp;quot;r&amp;quot;,&amp;quot;b&amp;quot;],&amp;quot;attribute&amp;quot;:{&amp;quot;container&amp;quot;:false,&amp;quot;visible&amp;quot;:true,&amp;quot;rotatable&amp;quot;:true,&amp;quot;linkable&amp;quot;:true,&amp;quot;collapsable&amp;quot;:false,&amp;quot;collapsed&amp;quot;:false,&amp;quot;fixedLink&amp;quot;:false,&amp;quot;markerOffset&amp;quot;:5},&amp;quot;dataAttributes&amp;quot;:[{&amp;quot;name&amp;quot;:&amp;quot;序号&amp;quot;,&amp;quot;type&amp;quot;:&amp;quot;number&amp;quot;,&amp;quot;value&amp;quot;:&amp;quot;&amp;quot;,&amp;quot;category&amp;quot;:&amp;quot;default&amp;quot;,&amp;quot;id&amp;quot;:&amp;quot;xsjpVnvFgm690156&amp;quot;},{&amp;quot;name&amp;quot;:&amp;quot;名称&amp;quot;,&amp;quot;type&amp;quot;:&amp;quot;string&amp;quot;,&amp;quot;value&amp;quot;:&amp;quot;&amp;quot;,&amp;quot;category&amp;quot;:&amp;quot;default&amp;quot;,&amp;quot;id&amp;quot;:&amp;quot;QTGjqfJohl394644&amp;quot;},{&amp;quot;name&amp;quot;:&amp;quot;所有者&amp;quot;,&amp;quot;type&amp;quot;:&amp;quot;string&amp;quot;,&amp;quot;value&amp;quot;:&amp;quot;&amp;quot;,&amp;quot;category&amp;quot;:&amp;quot;default&amp;quot;,&amp;quot;id&amp;quot;:&amp;quot;jVJTPPszBr037797&amp;quot;},{&amp;quot;name&amp;quot;:&amp;quot;连接&amp;quot;,&amp;quot;type&amp;quot;:&amp;quot;link&amp;quot;,&amp;quot;value&amp;quot;:&amp;quot;&amp;quot;,&amp;quot;category&amp;quot;:&amp;quot;default&amp;quot;,&amp;quot;id&amp;quot;:&amp;quot;fXrJvMtfzU084687&amp;quot;},{&amp;quot;name&amp;quot;:&amp;quot;便笺&amp;quot;,&amp;quot;type&amp;quot;:&amp;quot;string&amp;quot;,&amp;quot;value&amp;quot;:&amp;quot;&amp;quot;,&amp;quot;category&amp;quot;:&amp;quot;default&amp;quot;,&amp;quot;id&amp;quot;:&amp;quot;uxHJVJTLpK106849&amp;quot;}],&amp;quot;props&amp;quot;:{&amp;quot;x&amp;quot;:1219.3073569473072,&amp;quot;y&amp;quot;:5674.5,&amp;quot;w&amp;quot;:96,&amp;quot;h&amp;quot;:54,&amp;quot;zindex&amp;quot;:838,&amp;quot;angle&amp;quot;:0},&amp;quot;shapeStyle&amp;quot;:{&amp;quot;alpha&amp;quot;:1},&amp;quot;lineStyle&amp;quot;:{&amp;quot;lineStyle&amp;quot;:&amp;quot;dashed&amp;quot;,&amp;quot;lineColor&amp;quot;:&amp;quot;0,127,255&amp;quot;,&amp;quot;lineWidth&amp;quot;:1.5},&amp;quot;fillStyle&amp;quot;:{&amp;quot;type&amp;quot;:&amp;quot;none&amp;quot;},&amp;quot;theme&amp;quot;:{},&amp;quot;path&amp;quot;:[{&amp;quot;actions&amp;quot;:[{&amp;quot;action&amp;quot;:&amp;quot;move&amp;quot;,&amp;quot;x&amp;quot;:&amp;quot;0&amp;quot;,&amp;quot;y&amp;quot;:&amp;quot;0&amp;quot;},{&amp;quot;action&amp;quot;:&amp;quot;line&amp;quot;,&amp;quot;x&amp;quot;:&amp;quot;w&amp;quot;,&amp;quot;y&amp;quot;:&amp;quot;0&amp;quot;},{&amp;quot;action&amp;quot;:&amp;quot;line&amp;quot;,&amp;quot;x&amp;quot;:&amp;quot;w&amp;quot;,&amp;quot;y&amp;quot;:&amp;quot;h&amp;quot;},{&amp;quot;action&amp;quot;:&amp;quot;line&amp;quot;,&amp;quot;x&amp;quot;:&amp;quot;0&amp;quot;,&amp;quot;y&amp;quot;:&amp;quot;h&amp;quot;},{&amp;quot;action&amp;quot;:&amp;quot;close&amp;quot;}]}],&amp;quot;fontStyle&amp;quot;:{},&amp;quot;textBlock&amp;quot;:[{&amp;quot;position&amp;quot;:{&amp;quot;x&amp;quot;:10,&amp;quot;y&amp;quot;:0,&amp;quot;w&amp;quot;:&amp;quot;w-20&amp;quot;,&amp;quot;h&amp;quot;:&amp;quot;h&amp;quot;},&amp;quot;text&amp;quot;:&amp;quot;保存到当前目录&amp;quot;}],&amp;quot;anchors&amp;quot;:[{&amp;quot;x&amp;quot;:&amp;quot;w/2&amp;quot;,&amp;quot;y&amp;quot;:&amp;quot;0&amp;quot;},{&amp;quot;x&amp;quot;:&amp;quot;w/2&amp;quot;,&amp;quot;y&amp;quot;:&amp;quot;h&amp;quot;},{&amp;quot;x&amp;quot;:&amp;quot;0&amp;quot;,&amp;quot;y&amp;quot;:&amp;quot;h/2&amp;quot;},{&amp;quot;x&amp;quot;:&amp;quot;w&amp;quot;,&amp;quot;y&amp;quot;:&amp;quot;h/2&amp;quot;}]}]}&quot;&gt; &lt;/div&gt;" style="text;whiteSpace=wrap;html=1;" parent="1" vertex="1">
          <mxGeometry x="170" y="380" width="30" height="20" as="geometry" />
        </mxCell>
        <mxCell id="dTiAx6UK3Yj_eX1VGu5U-2" value="&lt;div data-t=&quot;flow&quot; data-processon-v=&quot;{&amp;quot;list&amp;quot;:[{&amp;quot;id&amp;quot;:&amp;quot;gLDWOsaupT811578&amp;quot;,&amp;quot;name&amp;quot;:&amp;quot;rectangle&amp;quot;,&amp;quot;title&amp;quot;:&amp;quot;矩形&amp;quot;,&amp;quot;category&amp;quot;:&amp;quot;basic&amp;quot;,&amp;quot;group&amp;quot;:&amp;quot;&amp;quot;,&amp;quot;groupName&amp;quot;:null,&amp;quot;locked&amp;quot;:false,&amp;quot;link&amp;quot;:&amp;quot;&amp;quot;,&amp;quot;children&amp;quot;:[],&amp;quot;parent&amp;quot;:&amp;quot;&amp;quot;,&amp;quot;resizeDir&amp;quot;:[&amp;quot;tl&amp;quot;,&amp;quot;tr&amp;quot;,&amp;quot;br&amp;quot;,&amp;quot;bl&amp;quot;,&amp;quot;l&amp;quot;,&amp;quot;t&amp;quot;,&amp;quot;r&amp;quot;,&amp;quot;b&amp;quot;],&amp;quot;attribute&amp;quot;:{&amp;quot;container&amp;quot;:false,&amp;quot;visible&amp;quot;:true,&amp;quot;rotatable&amp;quot;:true,&amp;quot;linkable&amp;quot;:true,&amp;quot;collapsable&amp;quot;:false,&amp;quot;collapsed&amp;quot;:false,&amp;quot;fixedLink&amp;quot;:false,&amp;quot;markerOffset&amp;quot;:5},&amp;quot;dataAttributes&amp;quot;:[{&amp;quot;name&amp;quot;:&amp;quot;序号&amp;quot;,&amp;quot;type&amp;quot;:&amp;quot;number&amp;quot;,&amp;quot;value&amp;quot;:&amp;quot;&amp;quot;,&amp;quot;category&amp;quot;:&amp;quot;default&amp;quot;,&amp;quot;id&amp;quot;:&amp;quot;JlQPgyejlZ394632&amp;quot;},{&amp;quot;name&amp;quot;:&amp;quot;名称&amp;quot;,&amp;quot;type&amp;quot;:&amp;quot;string&amp;quot;,&amp;quot;value&amp;quot;:&amp;quot;&amp;quot;,&amp;quot;category&amp;quot;:&amp;quot;default&amp;quot;,&amp;quot;id&amp;quot;:&amp;quot;lJrlAexkfx180489&amp;quot;},{&amp;quot;name&amp;quot;:&amp;quot;所有者&amp;quot;,&amp;quot;type&amp;quot;:&amp;quot;string&amp;quot;,&amp;quot;value&amp;quot;:&amp;quot;&amp;quot;,&amp;quot;category&amp;quot;:&amp;quot;default&amp;quot;,&amp;quot;id&amp;quot;:&amp;quot;VkzHucsKEB582434&amp;quot;},{&amp;quot;name&amp;quot;:&amp;quot;连接&amp;quot;,&amp;quot;type&amp;quot;:&amp;quot;link&amp;quot;,&amp;quot;value&amp;quot;:&amp;quot;&amp;quot;,&amp;quot;category&amp;quot;:&amp;quot;default&amp;quot;,&amp;quot;id&amp;quot;:&amp;quot;MulWnHFosX288640&amp;quot;},{&amp;quot;name&amp;quot;:&amp;quot;便笺&amp;quot;,&amp;quot;type&amp;quot;:&amp;quot;string&amp;quot;,&amp;quot;value&amp;quot;:&amp;quot;&amp;quot;,&amp;quot;category&amp;quot;:&amp;quot;default&amp;quot;,&amp;quot;id&amp;quot;:&amp;quot;utEHZRjKOc581117&amp;quot;}],&amp;quot;props&amp;quot;:{&amp;quot;x&amp;quot;:1031.958333333334,&amp;quot;y&amp;quot;:5993.1662264972165,&amp;quot;w&amp;quot;:96,&amp;quot;h&amp;quot;:54,&amp;quot;zindex&amp;quot;:820,&amp;quot;angle&amp;quot;:0},&amp;quot;shapeStyle&amp;quot;:{&amp;quot;alpha&amp;quot;:1},&amp;quot;lineStyle&amp;quot;:{&amp;quot;lineStyle&amp;quot;:&amp;quot;dashed&amp;quot;,&amp;quot;lineColor&amp;quot;:&amp;quot;0,127,255&amp;quot;,&amp;quot;lineWidth&amp;quot;:1.5},&amp;quot;fillStyle&amp;quot;:{&amp;quot;type&amp;quot;:&amp;quot;none&amp;quot;},&amp;quot;theme&amp;quot;:{},&amp;quot;path&amp;quot;:[{&amp;quot;actions&amp;quot;:[{&amp;quot;action&amp;quot;:&amp;quot;move&amp;quot;,&amp;quot;x&amp;quot;:&amp;quot;0&amp;quot;,&amp;quot;y&amp;quot;:&amp;quot;0&amp;quot;},{&amp;quot;action&amp;quot;:&amp;quot;line&amp;quot;,&amp;quot;x&amp;quot;:&amp;quot;w&amp;quot;,&amp;quot;y&amp;quot;:&amp;quot;0&amp;quot;},{&amp;quot;action&amp;quot;:&amp;quot;line&amp;quot;,&amp;quot;x&amp;quot;:&amp;quot;w&amp;quot;,&amp;quot;y&amp;quot;:&amp;quot;h&amp;quot;},{&amp;quot;action&amp;quot;:&amp;quot;line&amp;quot;,&amp;quot;x&amp;quot;:&amp;quot;0&amp;quot;,&amp;quot;y&amp;quot;:&amp;quot;h&amp;quot;},{&amp;quot;action&amp;quot;:&amp;quot;close&amp;quot;}]}],&amp;quot;fontStyle&amp;quot;:{},&amp;quot;textBlock&amp;quot;:[{&amp;quot;position&amp;quot;:{&amp;quot;x&amp;quot;:10,&amp;quot;y&amp;quot;:0,&amp;quot;w&amp;quot;:&amp;quot;w-20&amp;quot;,&amp;quot;h&amp;quot;:&amp;quot;h&amp;quot;},&amp;quot;text&amp;quot;:&amp;quot;server&amp;quot;}],&amp;quot;anchors&amp;quot;:[{&amp;quot;x&amp;quot;:&amp;quot;w/2&amp;quot;,&amp;quot;y&amp;quot;:&amp;quot;0&amp;quot;},{&amp;quot;x&amp;quot;:&amp;quot;w/2&amp;quot;,&amp;quot;y&amp;quot;:&amp;quot;h&amp;quot;},{&amp;quot;x&amp;quot;:&amp;quot;0&amp;quot;,&amp;quot;y&amp;quot;:&amp;quot;h/2&amp;quot;},{&amp;quot;x&amp;quot;:&amp;quot;w&amp;quot;,&amp;quot;y&amp;quot;:&amp;quot;h/2&amp;quot;}]},{&amp;quot;id&amp;quot;:&amp;quot;mkiXFNtNtC384921&amp;quot;,&amp;quot;name&amp;quot;:&amp;quot;rectangle&amp;quot;,&amp;quot;title&amp;quot;:&amp;quot;矩形&amp;quot;,&amp;quot;category&amp;quot;:&amp;quot;basic&amp;quot;,&amp;quot;group&amp;quot;:&amp;quot;&amp;quot;,&amp;quot;groupName&amp;quot;:null,&amp;quot;locked&amp;quot;:false,&amp;quot;link&amp;quot;:&amp;quot;&amp;quot;,&amp;quot;children&amp;quot;:[],&amp;quot;parent&amp;quot;:&amp;quot;&amp;quot;,&amp;quot;resizeDir&amp;quot;:[&amp;quot;tl&amp;quot;,&amp;quot;tr&amp;quot;,&amp;quot;br&amp;quot;,&amp;quot;bl&amp;quot;,&amp;quot;l&amp;quot;,&amp;quot;t&amp;quot;,&amp;quot;r&amp;quot;,&amp;quot;b&amp;quot;],&amp;quot;attribute&amp;quot;:{&amp;quot;container&amp;quot;:false,&amp;quot;visible&amp;quot;:true,&amp;quot;rotatable&amp;quot;:true,&amp;quot;linkable&amp;quot;:true,&amp;quot;collapsable&amp;quot;:false,&amp;quot;collapsed&amp;quot;:false,&amp;quot;fixedLink&amp;quot;:false,&amp;quot;markerOffset&amp;quot;:5},&amp;quot;dataAttributes&amp;quot;:[{&amp;quot;name&amp;quot;:&amp;quot;序号&amp;quot;,&amp;quot;type&amp;quot;:&amp;quot;number&amp;quot;,&amp;quot;value&amp;quot;:&amp;quot;&amp;quot;,&amp;quot;category&amp;quot;:&amp;quot;default&amp;quot;,&amp;quot;id&amp;quot;:&amp;quot;jzGMtOKTHk629086&amp;quot;},{&amp;quot;name&amp;quot;:&amp;quot;名称&amp;quot;,&amp;quot;type&amp;quot;:&amp;quot;string&amp;quot;,&amp;quot;value&amp;quot;:&amp;quot;&amp;quot;,&amp;quot;category&amp;quot;:&amp;quot;default&amp;quot;,&amp;quot;id&amp;quot;:&amp;quot;kflUMVjPjo455238&amp;quot;},{&amp;quot;name&amp;quot;:&amp;quot;所有者&amp;quot;,&amp;quot;type&amp;quot;:&amp;quot;string&amp;quot;,&amp;quot;value&amp;quot;:&amp;quot;&amp;quot;,&amp;quot;category&amp;quot;:&amp;quot;default&amp;quot;,&amp;quot;id&amp;quot;:&amp;quot;ezDJBjnsQo268732&amp;quot;},{&amp;quot;name&amp;quot;:&amp;quot;连接&amp;quot;,&amp;quot;type&amp;quot;:&amp;quot;link&amp;quot;,&amp;quot;value&amp;quot;:&amp;quot;&amp;quot;,&amp;quot;category&amp;quot;:&amp;quot;default&amp;quot;,&amp;quot;id&amp;quot;:&amp;quot;yipCTJTPiG073978&amp;quot;},{&amp;quot;name&amp;quot;:&amp;quot;便笺&amp;quot;,&amp;quot;type&amp;quot;:&amp;quot;string&amp;quot;,&amp;quot;value&amp;quot;:&amp;quot;&amp;quot;,&amp;quot;category&amp;quot;:&amp;quot;default&amp;quot;,&amp;quot;id&amp;quot;:&amp;quot;FYYSMQBkkN711731&amp;quot;}],&amp;quot;props&amp;quot;:{&amp;quot;x&amp;quot;:1219.3073569473072,&amp;quot;y&amp;quot;:5993.1662264972165,&amp;quot;w&amp;quot;:96,&amp;quot;h&amp;quot;:54,&amp;quot;zindex&amp;quot;:822,&amp;quot;angle&amp;quot;:0},&amp;quot;shapeStyle&amp;quot;:{&amp;quot;alpha&amp;quot;:1},&amp;quot;lineStyle&amp;quot;:{&amp;quot;lineStyle&amp;quot;:&amp;quot;dashed&amp;quot;,&amp;quot;lineColor&amp;quot;:&amp;quot;0,127,255&amp;quot;,&amp;quot;lineWidth&amp;quot;:1.5},&amp;quot;fillStyle&amp;quot;:{&amp;quot;type&amp;quot;:&amp;quot;none&amp;quot;},&amp;quot;theme&amp;quot;:{},&amp;quot;path&amp;quot;:[{&amp;quot;actions&amp;quot;:[{&amp;quot;action&amp;quot;:&amp;quot;move&amp;quot;,&amp;quot;x&amp;quot;:&amp;quot;0&amp;quot;,&amp;quot;y&amp;quot;:&amp;quot;0&amp;quot;},{&amp;quot;action&amp;quot;:&amp;quot;line&amp;quot;,&amp;quot;x&amp;quot;:&amp;quot;w&amp;quot;,&amp;quot;y&amp;quot;:&amp;quot;0&amp;quot;},{&amp;quot;action&amp;quot;:&amp;quot;line&amp;quot;,&amp;quot;x&amp;quot;:&amp;quot;w&amp;quot;,&amp;quot;y&amp;quot;:&amp;quot;h&amp;quot;},{&amp;quot;action&amp;quot;:&amp;quot;line&amp;quot;,&amp;quot;x&amp;quot;:&amp;quot;0&amp;quot;,&amp;quot;y&amp;quot;:&amp;quot;h&amp;quot;},{&amp;quot;action&amp;quot;:&amp;quot;close&amp;quot;}]}],&amp;quot;fontStyle&amp;quot;:{},&amp;quot;textBlock&amp;quot;:[{&amp;quot;position&amp;quot;:{&amp;quot;x&amp;quot;:10,&amp;quot;y&amp;quot;:0,&amp;quot;w&amp;quot;:&amp;quot;w-20&amp;quot;,&amp;quot;h&amp;quot;:&amp;quot;h&amp;quot;},&amp;quot;text&amp;quot;:&amp;quot;/api/img/map&amp;quot;}],&amp;quot;anchors&amp;quot;:[{&amp;quot;x&amp;quot;:&amp;quot;w/2&amp;quot;,&amp;quot;y&amp;quot;:&amp;quot;0&amp;quot;},{&amp;quot;x&amp;quot;:&amp;quot;w/2&amp;quot;,&amp;quot;y&amp;quot;:&amp;quot;h&amp;quot;},{&amp;quot;x&amp;quot;:&amp;quot;0&amp;quot;,&amp;quot;y&amp;quot;:&amp;quot;h/2&amp;quot;},{&amp;quot;x&amp;quot;:&amp;quot;w&amp;quot;,&amp;quot;y&amp;quot;:&amp;quot;h/2&amp;quot;}]},{&amp;quot;id&amp;quot;:&amp;quot;tqsBhdkUDv802608&amp;quot;,&amp;quot;name&amp;quot;:&amp;quot;rectangle&amp;quot;,&amp;quot;title&amp;quot;:&amp;quot;矩形&amp;quot;,&amp;quot;category&amp;quot;:&amp;quot;basic&amp;quot;,&amp;quot;group&amp;quot;:&amp;quot;&amp;quot;,&amp;quot;groupName&amp;quot;:null,&amp;quot;locked&amp;quot;:false,&amp;quot;link&amp;quot;:&amp;quot;&amp;quot;,&amp;quot;children&amp;quot;:[],&amp;quot;parent&amp;quot;:&amp;quot;&amp;quot;,&amp;quot;resizeDir&amp;quot;:[&amp;quot;tl&amp;quot;,&amp;quot;tr&amp;quot;,&amp;quot;br&amp;quot;,&amp;quot;bl&amp;quot;,&amp;quot;l&amp;quot;,&amp;quot;t&amp;quot;,&amp;quot;r&amp;quot;,&amp;quot;b&amp;quot;],&amp;quot;attribute&amp;quot;:{&amp;quot;container&amp;quot;:false,&amp;quot;visible&amp;quot;:true,&amp;quot;rotatable&amp;quot;:true,&amp;quot;linkable&amp;quot;:true,&amp;quot;collapsable&amp;quot;:false,&amp;quot;collapsed&amp;quot;:false,&amp;quot;fixedLink&amp;quot;:false,&amp;quot;markerOffset&amp;quot;:5},&amp;quot;dataAttributes&amp;quot;:[{&amp;quot;name&amp;quot;:&amp;quot;序号&amp;quot;,&amp;quot;type&amp;quot;:&amp;quot;number&amp;quot;,&amp;quot;value&amp;quot;:&amp;quot;&amp;quot;,&amp;quot;category&amp;quot;:&amp;quot;default&amp;quot;,&amp;quot;id&amp;quot;:&amp;quot;jdxUozwaSQ570325&amp;quot;},{&amp;quot;name&amp;quot;:&amp;quot;名称&amp;quot;,&amp;quot;type&amp;quot;:&amp;quot;string&amp;quot;,&amp;quot;value&amp;quot;:&amp;quot;&amp;quot;,&amp;quot;category&amp;quot;:&amp;quot;default&amp;quot;,&amp;quot;id&amp;quot;:&amp;quot;rTCBzQEubs560028&amp;quot;},{&amp;quot;name&amp;quot;:&amp;quot;所有者&amp;quot;,&amp;quot;type&amp;quot;:&amp;quot;string&amp;quot;,&amp;quot;value&amp;quot;:&amp;quot;&amp;quot;,&amp;quot;category&amp;quot;:&amp;quot;default&amp;quot;,&amp;quot;id&amp;quot;:&amp;quot;sYzEkrAxce783136&amp;quot;},{&amp;quot;name&amp;quot;:&amp;quot;连接&amp;quot;,&amp;quot;type&amp;quot;:&amp;quot;link&amp;quot;,&amp;quot;value&amp;quot;:&amp;quot;&amp;quot;,&amp;quot;category&amp;quot;:&amp;quot;default&amp;quot;,&amp;quot;id&amp;quot;:&amp;quot;TfEGiNmEIs718461&amp;quot;},{&amp;quot;name&amp;quot;:&amp;quot;便笺&amp;quot;,&amp;quot;type&amp;quot;:&amp;quot;string&amp;quot;,&amp;quot;value&amp;quot;:&amp;quot;&amp;quot;,&amp;quot;category&amp;quot;:&amp;quot;default&amp;quot;,&amp;quot;id&amp;quot;:&amp;quot;xcfJwuvGuI685793&amp;quot;}],&amp;quot;props&amp;quot;:{&amp;quot;x&amp;quot;:1394.7851513387081,&amp;quot;y&amp;quot;:5993.1662264972165,&amp;quot;w&amp;quot;:96,&amp;quot;h&amp;quot;:54,&amp;quot;zindex&amp;quot;:824,&amp;quot;angle&amp;quot;:0},&amp;quot;shapeStyle&amp;quot;:{&amp;quot;alpha&amp;quot;:1},&amp;quot;lineStyle&amp;quot;:{&amp;quot;lineStyle&amp;quot;:&amp;quot;dashed&amp;quot;,&amp;quot;lineColor&amp;quot;:&amp;quot;0,127,255&amp;quot;,&amp;quot;lineWidth&amp;quot;:1.5},&amp;quot;fillStyle&amp;quot;:{&amp;quot;type&amp;quot;:&amp;quot;none&amp;quot;},&amp;quot;theme&amp;quot;:{},&amp;quot;path&amp;quot;:[{&amp;quot;actions&amp;quot;:[{&amp;quot;action&amp;quot;:&amp;quot;move&amp;quot;,&amp;quot;x&amp;quot;:&amp;quot;0&amp;quot;,&amp;quot;y&amp;quot;:&amp;quot;0&amp;quot;},{&amp;quot;action&amp;quot;:&amp;quot;line&amp;quot;,&amp;quot;x&amp;quot;:&amp;quot;w&amp;quot;,&amp;quot;y&amp;quot;:&amp;quot;0&amp;quot;},{&amp;quot;action&amp;quot;:&amp;quot;line&amp;quot;,&amp;quot;x&amp;quot;:&amp;quot;w&amp;quot;,&amp;quot;y&amp;quot;:&amp;quot;h&amp;quot;},{&amp;quot;action&amp;quot;:&amp;quot;line&amp;quot;,&amp;quot;x&amp;quot;:&amp;quot;0&amp;quot;,&amp;quot;y&amp;quot;:&amp;quot;h&amp;quot;},{&amp;quot;action&amp;quot;:&amp;quot;close&amp;quot;}]}],&amp;quot;fontStyle&amp;quot;:{},&amp;quot;textBlock&amp;quot;:[{&amp;quot;position&amp;quot;:{&amp;quot;x&amp;quot;:10,&amp;quot;y&amp;quot;:0,&amp;quot;w&amp;quot;:&amp;quot;w-20&amp;quot;,&amp;quot;h&amp;quot;:&amp;quot;h&amp;quot;},&amp;quot;text&amp;quot;:&amp;quot;pull&amp;quot;}],&amp;quot;anchors&amp;quot;:[{&amp;quot;x&amp;quot;:&amp;quot;w/2&amp;quot;,&amp;quot;y&amp;quot;:&amp;quot;0&amp;quot;},{&amp;quot;x&amp;quot;:&amp;quot;w/2&amp;quot;,&amp;quot;y&amp;quot;:&amp;quot;h&amp;quot;},{&amp;quot;x&amp;quot;:&amp;quot;0&amp;quot;,&amp;quot;y&amp;quot;:&amp;quot;h/2&amp;quot;},{&amp;quot;x&amp;quot;:&amp;quot;w&amp;quot;,&amp;quot;y&amp;quot;:&amp;quot;h/2&amp;quot;}]},{&amp;quot;id&amp;quot;:&amp;quot;mYsXDIhQIK173431&amp;quot;,&amp;quot;name&amp;quot;:&amp;quot;linker&amp;quot;,&amp;quot;text&amp;quot;:&amp;quot;&amp;quot;,&amp;quot;group&amp;quot;:&amp;quot;&amp;quot;,&amp;quot;linkerType&amp;quot;:&amp;quot;broken&amp;quot;,&amp;quot;points&amp;quot;:[{&amp;quot;x&amp;quot;:1529.6904354106546,&amp;quot;y&amp;quot;:6020.1662264972165},{&amp;quot;x&amp;quot;:1529.6904354106546,&amp;quot;y&amp;quot;:6020.1662264972165}],&amp;quot;locked&amp;quot;:false,&amp;quot;dataAttributes&amp;quot;:[],&amp;quot;props&amp;quot;:{&amp;quot;zindex&amp;quot;:825},&amp;quot;lineStyle&amp;quot;:{&amp;quot;lineWidth&amp;quot;:1.5},&amp;quot;from&amp;quot;:{&amp;quot;x&amp;quot;:1490.7851513387081,&amp;quot;y&amp;quot;:6020.1662264972165,&amp;quot;id&amp;quot;:&amp;quot;tqsBhdkUDv802608&amp;quot;,&amp;quot;angle&amp;quot;:3.1415926535897936},&amp;quot;to&amp;quot;:{&amp;quot;id&amp;quot;:&amp;quot;zcKKXTDiIj012993&amp;quot;,&amp;quot;x&amp;quot;:1568.5957194826008,&amp;quot;y&amp;quot;:6020.1662264972165,&amp;quot;angle&amp;quot;:0},&amp;quot;textBlock&amp;quot;:[]},{&amp;quot;id&amp;quot;:&amp;quot;zcKKXTDiIj012993&amp;quot;,&amp;quot;name&amp;quot;:&amp;quot;rectangle&amp;quot;,&amp;quot;title&amp;quot;:&amp;quot;矩形&amp;quot;,&amp;quot;category&amp;quot;:&amp;quot;basic&amp;quot;,&amp;quot;group&amp;quot;:&amp;quot;&amp;quot;,&amp;quot;groupName&amp;quot;:null,&amp;quot;locked&amp;quot;:false,&amp;quot;link&amp;quot;:&amp;quot;&amp;quot;,&amp;quot;children&amp;quot;:[],&amp;quot;parent&amp;quot;:&amp;quot;&amp;quot;,&amp;quot;resizeDir&amp;quot;:[&amp;quot;tl&amp;quot;,&amp;quot;tr&amp;quot;,&amp;quot;br&amp;quot;,&amp;quot;bl&amp;quot;,&amp;quot;l&amp;quot;,&amp;quot;t&amp;quot;,&amp;quot;r&amp;quot;,&amp;quot;b&amp;quot;],&amp;quot;attribute&amp;quot;:{&amp;quot;container&amp;quot;:false,&amp;quot;visible&amp;quot;:true,&amp;quot;rotatable&amp;quot;:true,&amp;quot;linkable&amp;quot;:true,&amp;quot;collapsable&amp;quot;:false,&amp;quot;collapsed&amp;quot;:false,&amp;quot;fixedLink&amp;quot;:false,&amp;quot;markerOffset&amp;quot;:5},&amp;quot;dataAttributes&amp;quot;:[{&amp;quot;name&amp;quot;:&amp;quot;序号&amp;quot;,&amp;quot;type&amp;quot;:&amp;quot;number&amp;quot;,&amp;quot;value&amp;quot;:&amp;quot;&amp;quot;,&amp;quot;category&amp;quot;:&amp;quot;default&amp;quot;,&amp;quot;id&amp;quot;:&amp;quot;pKFKpEVAXo606710&amp;quot;},{&amp;quot;name&amp;quot;:&amp;quot;名称&amp;quot;,&amp;quot;type&amp;quot;:&amp;quot;string&amp;quot;,&amp;quot;value&amp;quot;:&amp;quot;&amp;quot;,&amp;quot;category&amp;quot;:&amp;quot;default&amp;quot;,&amp;quot;id&amp;quot;:&amp;quot;LpFBngFqFs144904&amp;quot;},{&amp;quot;name&amp;quot;:&amp;quot;所有者&amp;quot;,&amp;quot;type&amp;quot;:&amp;quot;string&amp;quot;,&amp;quot;value&amp;quot;:&amp;quot;&amp;quot;,&amp;quot;category&amp;quot;:&amp;quot;default&amp;quot;,&amp;quot;id&amp;quot;:&amp;quot;kJJqJiPbGR620993&amp;quot;},{&amp;quot;name&amp;quot;:&amp;quot;连接&amp;quot;,&amp;quot;type&amp;quot;:&amp;quot;link&amp;quot;,&amp;quot;value&amp;quot;:&amp;quot;&amp;quot;,&amp;quot;category&amp;quot;:&amp;quot;default&amp;quot;,&amp;quot;id&amp;quot;:&amp;quot;rAIGsifuyB153885&amp;quot;},{&amp;quot;name&amp;quot;:&amp;quot;便笺&amp;quot;,&amp;quot;type&amp;quot;:&amp;quot;string&amp;quot;,&amp;quot;value&amp;quot;:&amp;quot;&amp;quot;,&amp;quot;category&amp;quot;:&amp;quot;default&amp;quot;,&amp;quot;id&amp;quot;:&amp;quot;gHHdcnSkzm344141&amp;quot;}],&amp;quot;props&amp;quot;:{&amp;quot;x&amp;quot;:1566.4943931549149,&amp;quot;y&amp;quot;:5993.1662264972165,&amp;quot;w&amp;quot;:96,&amp;quot;h&amp;quot;:54,&amp;quot;zindex&amp;quot;:826,&amp;quot;angle&amp;quot;:0},&amp;quot;shapeStyle&amp;quot;:{&amp;quot;alpha&amp;quot;:1},&amp;quot;lineStyle&amp;quot;:{&amp;quot;lineStyle&amp;quot;:&amp;quot;dashed&amp;quot;,&amp;quot;lineColor&amp;quot;:&amp;quot;0,127,255&amp;quot;,&amp;quot;lineWidth&amp;quot;:1.5},&amp;quot;fillStyle&amp;quot;:{&amp;quot;type&amp;quot;:&amp;quot;none&amp;quot;},&amp;quot;theme&amp;quot;:{},&amp;quot;path&amp;quot;:[{&amp;quot;actions&amp;quot;:[{&amp;quot;action&amp;quot;:&amp;quot;move&amp;quot;,&amp;quot;x&amp;quot;:&amp;quot;0&amp;quot;,&amp;quot;y&amp;quot;:&amp;quot;0&amp;quot;},{&amp;quot;action&amp;quot;:&amp;quot;line&amp;quot;,&amp;quot;x&amp;quot;:&amp;quot;w&amp;quot;,&amp;quot;y&amp;quot;:&amp;quot;0&amp;quot;},{&amp;quot;action&amp;quot;:&amp;quot;line&amp;quot;,&amp;quot;x&amp;quot;:&amp;quot;w&amp;quot;,&amp;quot;y&amp;quot;:&amp;quot;h&amp;quot;},{&amp;quot;action&amp;quot;:&amp;quot;line&amp;quot;,&amp;quot;x&amp;quot;:&amp;quot;0&amp;quot;,&amp;quot;y&amp;quot;:&amp;quot;h&amp;quot;},{&amp;quot;action&amp;quot;:&amp;quot;close&amp;quot;}]}],&amp;quot;fontStyle&amp;quot;:{},&amp;quot;textBlock&amp;quot;:[{&amp;quot;position&amp;quot;:{&amp;quot;x&amp;quot;:10,&amp;quot;y&amp;quot;:0,&amp;quot;w&amp;quot;:&amp;quot;w-20&amp;quot;,&amp;quot;h&amp;quot;:&amp;quot;h&amp;quot;},&amp;quot;text&amp;quot;:&amp;quot;save&amp;quot;}],&amp;quot;anchors&amp;quot;:[{&amp;quot;x&amp;quot;:&amp;quot;w/2&amp;quot;,&amp;quot;y&amp;quot;:&amp;quot;0&amp;quot;},{&amp;quot;x&amp;quot;:&amp;quot;w/2&amp;quot;,&amp;quot;y&amp;quot;:&amp;quot;h&amp;quot;},{&amp;quot;x&amp;quot;:&amp;quot;0&amp;quot;,&amp;quot;y&amp;quot;:&amp;quot;h/2&amp;quot;},{&amp;quot;x&amp;quot;:&amp;quot;w&amp;quot;,&amp;quot;y&amp;quot;:&amp;quot;h/2&amp;quot;}]},{&amp;quot;id&amp;quot;:&amp;quot;lmqvLzfnQI868989&amp;quot;,&amp;quot;name&amp;quot;:&amp;quot;linker&amp;quot;,&amp;quot;text&amp;quot;:&amp;quot;&amp;quot;,&amp;quot;group&amp;quot;:&amp;quot;&amp;quot;,&amp;quot;linkerType&amp;quot;:&amp;quot;broken&amp;quot;,&amp;quot;points&amp;quot;:[{&amp;quot;x&amp;quot;:1702.4943931549149,&amp;quot;y&amp;quot;:6020.1662264972165},{&amp;quot;x&amp;quot;:1702.4943931549149,&amp;quot;y&amp;quot;:6020.1662264972165}],&amp;quot;locked&amp;quot;:false,&amp;quot;dataAttributes&amp;quot;:[],&amp;quot;props&amp;quot;:{&amp;quot;zindex&amp;quot;:827},&amp;quot;lineStyle&amp;quot;:{&amp;quot;lineWidth&amp;quot;:1.5},&amp;quot;from&amp;quot;:{&amp;quot;x&amp;quot;:1662.4943931549149,&amp;quot;y&amp;quot;:6020.1662264972165,&amp;quot;id&amp;quot;:&amp;quot;zcKKXTDiIj012993&amp;quot;,&amp;quot;angle&amp;quot;:3.1415926535897936},&amp;quot;to&amp;quot;:{&amp;quot;id&amp;quot;:&amp;quot;NHBoHYEhZG973536&amp;quot;,&amp;quot;x&amp;quot;:1742.4943931549149,&amp;quot;y&amp;quot;:6020.1662264972165,&amp;quot;angle&amp;quot;:0},&amp;quot;textBlock&amp;quot;:[]},{&amp;quot;id&amp;quot;:&amp;quot;NHBoHYEhZG973536&amp;quot;,&amp;quot;name&amp;quot;:&amp;quot;rectangle&amp;quot;,&amp;quot;title&amp;quot;:&amp;quot;矩形&amp;quot;,&amp;quot;category&amp;quot;:&amp;quot;basic&amp;quot;,&amp;quot;group&amp;quot;:&amp;quot;&amp;quot;,&amp;quot;groupName&amp;quot;:null,&amp;quot;locked&amp;quot;:false,&amp;quot;link&amp;quot;:&amp;quot;&amp;quot;,&amp;quot;children&amp;quot;:[],&amp;quot;parent&amp;quot;:&amp;quot;&amp;quot;,&amp;quot;resizeDir&amp;quot;:[&amp;quot;tl&amp;quot;,&amp;quot;tr&amp;quot;,&amp;quot;br&amp;quot;,&amp;quot;bl&amp;quot;,&amp;quot;l&amp;quot;,&amp;quot;t&amp;quot;,&amp;quot;r&amp;quot;,&amp;quot;b&amp;quot;],&amp;quot;attribute&amp;quot;:{&amp;quot;container&amp;quot;:false,&amp;quot;visible&amp;quot;:true,&amp;quot;rotatable&amp;quot;:true,&amp;quot;linkable&amp;quot;:true,&amp;quot;collapsable&amp;quot;:false,&amp;quot;collapsed&amp;quot;:false,&amp;quot;fixedLink&amp;quot;:false,&amp;quot;markerOffset&amp;quot;:5},&amp;quot;dataAttributes&amp;quot;:[{&amp;quot;name&amp;quot;:&amp;quot;序号&amp;quot;,&amp;quot;type&amp;quot;:&amp;quot;number&amp;quot;,&amp;quot;value&amp;quot;:&amp;quot;&amp;quot;,&amp;quot;category&amp;quot;:&amp;quot;default&amp;quot;,&amp;quot;id&amp;quot;:&amp;quot;yqxCstjIiS526929&amp;quot;},{&amp;quot;name&amp;quot;:&amp;quot;名称&amp;quot;,&amp;quot;type&amp;quot;:&amp;quot;string&amp;quot;,&amp;quot;value&amp;quot;:&amp;quot;&amp;quot;,&amp;quot;category&amp;quot;:&amp;quot;default&amp;quot;,&amp;quot;id&amp;quot;:&amp;quot;jNrZlpwCDW651354&amp;quot;},{&amp;quot;name&amp;quot;:&amp;quot;所有者&amp;quot;,&amp;quot;type&amp;quot;:&amp;quot;string&amp;quot;,&amp;quot;value&amp;quot;:&amp;quot;&amp;quot;,&amp;quot;category&amp;quot;:&amp;quot;default&amp;quot;,&amp;quot;id&amp;quot;:&amp;quot;RpJHCDtCUj533326&amp;quot;},{&amp;quot;name&amp;quot;:&amp;quot;连接&amp;quot;,&amp;quot;type&amp;quot;:&amp;quot;link&amp;quot;,&amp;quot;value&amp;quot;:&amp;quot;&amp;quot;,&amp;quot;category&amp;quot;:&amp;quot;default&amp;quot;,&amp;quot;id&amp;quot;:&amp;quot;HUySdbFgjN357966&amp;quot;},{&amp;quot;name&amp;quot;:&amp;quot;便笺&amp;quot;,&amp;quot;type&amp;quot;:&amp;quot;string&amp;quot;,&amp;quot;value&amp;quot;:&amp;quot;&amp;quot;,&amp;quot;category&amp;quot;:&amp;quot;default&amp;quot;,&amp;quot;id&amp;quot;:&amp;quot;lzyiTPvmgU723733&amp;quot;}],&amp;quot;props&amp;quot;:{&amp;quot;x&amp;quot;:1743.8227028176677,&amp;quot;y&amp;quot;:5993.1662264972165,&amp;quot;w&amp;quot;:96,&amp;quot;h&amp;quot;:54,&amp;quot;zindex&amp;quot;:828,&amp;quot;angle&amp;quot;:0},&amp;quot;shapeStyle&amp;quot;:{&amp;quot;alpha&amp;quot;:1},&amp;quot;lineStyle&amp;quot;:{&amp;quot;lineStyle&amp;quot;:&amp;quot;dashed&amp;quot;,&amp;quot;lineColor&amp;quot;:&amp;quot;0,127,255&amp;quot;,&amp;quot;lineWidth&amp;quot;:1.5},&amp;quot;fillStyle&amp;quot;:{&amp;quot;type&amp;quot;:&amp;quot;none&amp;quot;},&amp;quot;theme&amp;quot;:{},&amp;quot;path&amp;quot;:[{&amp;quot;actions&amp;quot;:[{&amp;quot;action&amp;quot;:&amp;quot;move&amp;quot;,&amp;quot;x&amp;quot;:&amp;quot;0&amp;quot;,&amp;quot;y&amp;quot;:&amp;quot;0&amp;quot;},{&amp;quot;action&amp;quot;:&amp;quot;line&amp;quot;,&amp;quot;x&amp;quot;:&amp;quot;w&amp;quot;,&amp;quot;y&amp;quot;:&amp;quot;0&amp;quot;},{&amp;quot;action&amp;quot;:&amp;quot;line&amp;quot;,&amp;quot;x&amp;quot;:&amp;quot;w&amp;quot;,&amp;quot;y&amp;quot;:&amp;quot;h&amp;quot;},{&amp;quot;action&amp;quot;:&amp;quot;line&amp;quot;,&amp;quot;x&amp;quot;:&amp;quot;0&amp;quot;,&amp;quot;y&amp;quot;:&amp;quot;h&amp;quot;},{&amp;quot;action&amp;quot;:&amp;quot;close&amp;quot;}]}],&amp;quot;fontStyle&amp;quot;:{},&amp;quot;textBlock&amp;quot;:[{&amp;quot;position&amp;quot;:{&amp;quot;x&amp;quot;:10,&amp;quot;y&amp;quot;:0,&amp;quot;w&amp;quot;:&amp;quot;w-20&amp;quot;,&amp;quot;h&amp;quot;:&amp;quot;h&amp;quot;},&amp;quot;text&amp;quot;:&amp;quot;upload-oss&amp;quot;}],&amp;quot;anchors&amp;quot;:[{&amp;quot;x&amp;quot;:&amp;quot;w/2&amp;quot;,&amp;quot;y&amp;quot;:&amp;quot;0&amp;quot;},{&amp;quot;x&amp;quot;:&amp;quot;w/2&amp;quot;,&amp;quot;y&amp;quot;:&amp;quot;h&amp;quot;},{&amp;quot;x&amp;quot;:&amp;quot;0&amp;quot;,&amp;quot;y&amp;quot;:&amp;quot;h/2&amp;quot;},{&amp;quot;x&amp;quot;:&amp;quot;w&amp;quot;,&amp;quot;y&amp;quot;:&amp;quot;h/2&amp;quot;}]},{&amp;quot;id&amp;quot;:&amp;quot;CAiiVMFEOw481836&amp;quot;,&amp;quot;name&amp;quot;:&amp;quot;rectangle&amp;quot;,&amp;quot;title&amp;quot;:&amp;quot;矩形&amp;quot;,&amp;quot;category&amp;quot;:&amp;quot;basic&amp;quot;,&amp;quot;group&amp;quot;:&amp;quot;&amp;quot;,&amp;quot;groupName&amp;quot;:null,&amp;quot;locked&amp;quot;:false,&amp;quot;link&amp;quot;:&amp;quot;&amp;quot;,&amp;quot;children&amp;quot;:[],&amp;quot;parent&amp;quot;:&amp;quot;&amp;quot;,&amp;quot;resizeDir&amp;quot;:[&amp;quot;tl&amp;quot;,&amp;quot;tr&amp;quot;,&amp;quot;br&amp;quot;,&amp;quot;bl&amp;quot;,&amp;quot;l&amp;quot;,&amp;quot;t&amp;quot;,&amp;quot;r&amp;quot;,&amp;quot;b&amp;quot;],&amp;quot;attribute&amp;quot;:{&amp;quot;container&amp;quot;:false,&amp;quot;visible&amp;quot;:true,&amp;quot;rotatable&amp;quot;:true,&amp;quot;linkable&amp;quot;:true,&amp;quot;collapsable&amp;quot;:false,&amp;quot;collapsed&amp;quot;:false,&amp;quot;fixedLink&amp;quot;:false,&amp;quot;markerOffset&amp;quot;:5},&amp;quot;dataAttributes&amp;quot;:[{&amp;quot;name&amp;quot;:&amp;quot;序号&amp;quot;,&amp;quot;type&amp;quot;:&amp;quot;number&amp;quot;,&amp;quot;value&amp;quot;:&amp;quot;&amp;quot;,&amp;quot;category&amp;quot;:&amp;quot;default&amp;quot;,&amp;quot;id&amp;quot;:&amp;quot;qEOQkocVPa667042&amp;quot;},{&amp;quot;name&amp;quot;:&amp;quot;名称&amp;quot;,&amp;quot;type&amp;quot;:&amp;quot;string&amp;quot;,&amp;quot;value&amp;quot;:&amp;quot;&amp;quot;,&amp;quot;category&amp;quot;:&amp;quot;default&amp;quot;,&amp;quot;id&amp;quot;:&amp;quot;tbHspujUCz965720&amp;quot;},{&amp;quot;name&amp;quot;:&amp;quot;所有者&amp;quot;,&amp;quot;type&amp;quot;:&amp;quot;string&amp;quot;,&amp;quot;value&amp;quot;:&amp;quot;&amp;quot;,&amp;quot;category&amp;quot;:&amp;quot;default&amp;quot;,&amp;quot;id&amp;quot;:&amp;quot;yRTUzduDqO823215&amp;quot;},{&amp;quot;name&amp;quot;:&amp;quot;连接&amp;quot;,&amp;quot;type&amp;quot;:&amp;quot;link&amp;quot;,&amp;quot;value&amp;quot;:&amp;quot;&amp;quot;,&amp;quot;category&amp;quot;:&amp;quot;default&amp;quot;,&amp;quot;id&amp;quot;:&amp;quot;MSFtCUqmKH562570&amp;quot;},{&amp;quot;name&amp;quot;:&amp;quot;便笺&amp;quot;,&amp;quot;type&amp;quot;:&amp;quot;string&amp;quot;,&amp;quot;value&amp;quot;:&amp;quot;&amp;quot;,&amp;quot;category&amp;quot;:&amp;quot;default&amp;quot;,&amp;quot;id&amp;quot;:&amp;quot;sGZTbLRglK238028&amp;quot;}],&amp;quot;props&amp;quot;:{&amp;quot;x&amp;quot;:1219.3073569473072,&amp;quot;y&amp;quot;:5814.723216131977,&amp;quot;w&amp;quot;:96,&amp;quot;h&amp;quot;:61.446432263953284,&amp;quot;zindex&amp;quot;:829,&amp;quot;angle&amp;quot;:0},&amp;quot;shapeStyle&amp;quot;:{&amp;quot;alpha&amp;quot;:1},&amp;quot;lineStyle&amp;quot;:{&amp;quot;lineStyle&amp;quot;:&amp;quot;dashed&amp;quot;,&amp;quot;lineColor&amp;quot;:&amp;quot;0,127,255&amp;quot;,&amp;quot;lineWidth&amp;quot;:1.5},&amp;quot;fillStyle&amp;quot;:{&amp;quot;type&amp;quot;:&amp;quot;none&amp;quot;},&amp;quot;theme&amp;quot;:{},&amp;quot;path&amp;quot;:[{&amp;quot;actions&amp;quot;:[{&amp;quot;action&amp;quot;:&amp;quot;move&amp;quot;,&amp;quot;x&amp;quot;:&amp;quot;0&amp;quot;,&amp;quot;y&amp;quot;:&amp;quot;0&amp;quot;},{&amp;quot;action&amp;quot;:&amp;quot;line&amp;quot;,&amp;quot;x&amp;quot;:&amp;quot;w&amp;quot;,&amp;quot;y&amp;quot;:&amp;quot;0&amp;quot;},{&amp;quot;action&amp;quot;:&amp;quot;line&amp;quot;,&amp;quot;x&amp;quot;:&amp;quot;w&amp;quot;,&amp;quot;y&amp;quot;:&amp;quot;h&amp;quot;},{&amp;quot;action&amp;quot;:&amp;quot;line&amp;quot;,&amp;quot;x&amp;quot;:&amp;quot;0&amp;quot;,&amp;quot;y&amp;quot;:&amp;quot;h&amp;quot;},{&amp;quot;action&amp;quot;:&amp;quot;close&amp;quot;}]}],&amp;quot;fontStyle&amp;quot;:{},&amp;quot;textBlock&amp;quot;:[{&amp;quot;position&amp;quot;:{&amp;quot;x&amp;quot;:10,&amp;quot;y&amp;quot;:0,&amp;quot;w&amp;quot;:&amp;quot;w-20&amp;quot;,&amp;quot;h&amp;quot;:&amp;quot;h&amp;quot;},&amp;quot;text&amp;quot;:&amp;quot;client&amp;quot;}],&amp;quot;anchors&amp;quot;:[{&amp;quot;x&amp;quot;:&amp;quot;w/2&amp;quot;,&amp;quot;y&amp;quot;:&amp;quot;0&amp;quot;},{&amp;quot;x&amp;quot;:&amp;quot;w/2&amp;quot;,&amp;quot;y&amp;quot;:&amp;quot;h&amp;quot;},{&amp;quot;x&amp;quot;:&amp;quot;0&amp;quot;,&amp;quot;y&amp;quot;:&amp;quot;h/2&amp;quot;},{&amp;quot;x&amp;quot;:&amp;quot;w&amp;quot;,&amp;quot;y&amp;quot;:&amp;quot;h/2&amp;quot;}]},{&amp;quot;id&amp;quot;:&amp;quot;myAlXrzNeX034290&amp;quot;,&amp;quot;name&amp;quot;:&amp;quot;linker&amp;quot;,&amp;quot;text&amp;quot;:&amp;quot;&amp;quot;,&amp;quot;group&amp;quot;:&amp;quot;&amp;quot;,&amp;quot;linkerType&amp;quot;:&amp;quot;broken&amp;quot;,&amp;quot;points&amp;quot;:[{&amp;quot;x&amp;quot;:1173.6328451403206,&amp;quot;y&amp;quot;:6020.1662264972165},{&amp;quot;x&amp;quot;:1173.6328451403206,&amp;quot;y&amp;quot;:6020.1662264972165}],&amp;quot;locked&amp;quot;:false,&amp;quot;dataAttributes&amp;quot;:[],&amp;quot;props&amp;quot;:{&amp;quot;zindex&amp;quot;:830},&amp;quot;lineStyle&amp;quot;:{&amp;quot;lineWidth&amp;quot;:1.5},&amp;quot;from&amp;quot;:{&amp;quot;x&amp;quot;:1127.958333333334,&amp;quot;y&amp;quot;:6020.1662264972165,&amp;quot;angle&amp;quot;:3.1415926535897922,&amp;quot;id&amp;quot;:&amp;quot;gLDWOsaupT811578&amp;quot;},&amp;quot;to&amp;quot;:{&amp;quot;id&amp;quot;:&amp;quot;mkiXFNtNtC384921&amp;quot;,&amp;quot;x&amp;quot;:1219.3073569473072,&amp;quot;y&amp;quot;:6020.1662264972165,&amp;quot;angle&amp;quot;:0},&amp;quot;textBlock&amp;quot;:[]},{&amp;quot;id&amp;quot;:&amp;quot;bqFmehkaDk237506&amp;quot;,&amp;quot;name&amp;quot;:&amp;quot;linker&amp;quot;,&amp;quot;text&amp;quot;:&amp;quot;&amp;quot;,&amp;quot;group&amp;quot;:&amp;quot;&amp;quot;,&amp;quot;linkerType&amp;quot;:&amp;quot;broken&amp;quot;,&amp;quot;points&amp;quot;:[{&amp;quot;x&amp;quot;:1355.0462541430077,&amp;quot;y&amp;quot;:6020.1662264972165},{&amp;quot;x&amp;quot;:1355.0462541430077,&amp;quot;y&amp;quot;:6020.1662264972165}],&amp;quot;locked&amp;quot;:false,&amp;quot;dataAttributes&amp;quot;:[],&amp;quot;props&amp;quot;:{&amp;quot;zindex&amp;quot;:831},&amp;quot;lineStyle&amp;quot;:{&amp;quot;lineWidth&amp;quot;:1.5},&amp;quot;from&amp;quot;:{&amp;quot;x&amp;quot;:1315.3073569473072,&amp;quot;y&amp;quot;:6020.1662264972165,&amp;quot;angle&amp;quot;:3.1415926535897922,&amp;quot;id&amp;quot;:&amp;quot;mkiXFNtNtC384921&amp;quot;},&amp;quot;to&amp;quot;:{&amp;quot;id&amp;quot;:&amp;quot;tqsBhdkUDv802608&amp;quot;,&amp;quot;x&amp;quot;:1394.7851513387081,&amp;quot;y&amp;quot;:6020.1662264972165,&amp;quot;angle&amp;quot;:0},&amp;quot;textBlock&amp;quot;:[]},{&amp;quot;id&amp;quot;:&amp;quot;XfyGZSgwnG752422&amp;quot;,&amp;quot;name&amp;quot;:&amp;quot;linker&amp;quot;,&amp;quot;text&amp;quot;:&amp;quot;传入img/map&amp;quot;,&amp;quot;group&amp;quot;:&amp;quot;&amp;quot;,&amp;quot;linkerType&amp;quot;:&amp;quot;broken&amp;quot;,&amp;quot;points&amp;quot;:[{&amp;quot;x&amp;quot;:1267.3073569473072,&amp;quot;y&amp;quot;:5934.667937446573},{&amp;quot;x&amp;quot;:1267.3073569473072,&amp;quot;y&amp;quot;:5934.667937446573}],&amp;quot;locked&amp;quot;:false,&amp;quot;dataAttributes&amp;quot;:[],&amp;quot;props&amp;quot;:{&amp;quot;zindex&amp;quot;:832},&amp;quot;lineStyle&amp;quot;:{&amp;quot;lineWidth&amp;quot;:1.5},&amp;quot;from&amp;quot;:{&amp;quot;x&amp;quot;:1267.3073569473072,&amp;quot;y&amp;quot;:5876.16964839593,&amp;quot;id&amp;quot;:&amp;quot;CAiiVMFEOw481836&amp;quot;,&amp;quot;angle&amp;quot;:4.71238898038469},&amp;quot;to&amp;quot;:{&amp;quot;id&amp;quot;:&amp;quot;mkiXFNtNtC384921&amp;quot;,&amp;quot;x&amp;quot;:1267.3073569473072,&amp;quot;y&amp;quot;:5993.1662264972165,&amp;quot;angle&amp;quot;:1.570796326794897},&amp;quot;textBlock&amp;quot;:[{&amp;quot;text&amp;quot;:&amp;quot;传入img/map&amp;quot;,&amp;quot;location&amp;quot;:0.5602414438949933}],&amp;quot;textPos&amp;quot;:{&amp;quot;x&amp;quot;:1267.3073569473074,&amp;quot;y&amp;quot;:5940.517766351637,&amp;quot;t&amp;quot;:42}},{&amp;quot;id&amp;quot;:&amp;quot;FNHkJrFRMW895601&amp;quot;,&amp;quot;name&amp;quot;:&amp;quot;linker&amp;quot;,&amp;quot;text&amp;quot;:&amp;quot;&amp;quot;,&amp;quot;group&amp;quot;:&amp;quot;&amp;quot;,&amp;quot;linkerType&amp;quot;:&amp;quot;broken&amp;quot;,&amp;quot;points&amp;quot;:[{&amp;quot;x&amp;quot;:1335,&amp;quot;y&amp;quot;:6007,&amp;quot;fixed&amp;quot;:true},{&amp;quot;x&amp;quot;:1335,&amp;quot;y&amp;quot;:5957,&amp;quot;fixed&amp;quot;:true},{&amp;quot;x&amp;quot;:1607.8336650548385,&amp;quot;y&amp;quot;:5957}],&amp;quot;locked&amp;quot;:false,&amp;quot;dataAttributes&amp;quot;:[],&amp;quot;props&amp;quot;:{&amp;quot;zindex&amp;quot;:833},&amp;quot;lineStyle&amp;quot;:{&amp;quot;lineWidth&amp;quot;:1.5},&amp;quot;from&amp;quot;:{&amp;quot;angle&amp;quot;:3.141592653589793,&amp;quot;x&amp;quot;:1315,&amp;quot;y&amp;quot;:6007,&amp;quot;id&amp;quot;:&amp;quot;mkiXFNtNtC384921&amp;quot;},&amp;quot;to&amp;quot;:{&amp;quot;id&amp;quot;:&amp;quot;ElKQDuCzPd562072&amp;quot;,&amp;quot;x&amp;quot;:1607.8336650548385,&amp;quot;y&amp;quot;:5872.446432263954,&amp;quot;angle&amp;quot;:4.71238898038469},&amp;quot;textBlock&amp;quot;:[]},{&amp;quot;id&amp;quot;:&amp;quot;ElKQDuCzPd562072&amp;quot;,&amp;quot;name&amp;quot;:&amp;quot;rectangle&amp;quot;,&amp;quot;title&amp;quot;:&amp;quot;矩形&amp;quot;,&amp;quot;category&amp;quot;:&amp;quot;basic&amp;quot;,&amp;quot;group&amp;quot;:&amp;quot;&amp;quot;,&amp;quot;groupName&amp;quot;:null,&amp;quot;locked&amp;quot;:false,&amp;quot;link&amp;quot;:&amp;quot;&amp;quot;,&amp;quot;children&amp;quot;:[],&amp;quot;parent&amp;quot;:&amp;quot;&amp;quot;,&amp;quot;resizeDir&amp;quot;:[&amp;quot;tl&amp;quot;,&amp;quot;tr&amp;quot;,&amp;quot;br&amp;quot;,&amp;quot;bl&amp;quot;,&amp;quot;l&amp;quot;,&amp;quot;t&amp;quot;,&amp;quot;r&amp;quot;,&amp;quot;b&amp;quot;],&amp;quot;attribute&amp;quot;:{&amp;quot;container&amp;quot;:false,&amp;quot;visible&amp;quot;:true,&amp;quot;rotatable&amp;quot;:true,&amp;quot;linkable&amp;quot;:true,&amp;quot;collapsable&amp;quot;:false,&amp;quot;collapsed&amp;quot;:false,&amp;quot;fixedLink&amp;quot;:false,&amp;quot;markerOffset&amp;quot;:5},&amp;quot;dataAttributes&amp;quot;:[{&amp;quot;name&amp;quot;:&amp;quot;序号&amp;quot;,&amp;quot;type&amp;quot;:&amp;quot;number&amp;quot;,&amp;quot;value&amp;quot;:&amp;quot;&amp;quot;,&amp;quot;category&amp;quot;:&amp;quot;default&amp;quot;,&amp;quot;id&amp;quot;:&amp;quot;GuXZcgZBFC746062&amp;quot;},{&amp;quot;name&amp;quot;:&amp;quot;名称&amp;quot;,&amp;quot;type&amp;quot;:&amp;quot;string&amp;quot;,&amp;quot;value&amp;quot;:&amp;quot;&amp;quot;,&amp;quot;category&amp;quot;:&amp;quot;default&amp;quot;,&amp;quot;id&amp;quot;:&amp;quot;dQVKrpAFdz501817&amp;quot;},{&amp;quot;name&amp;quot;:&amp;quot;所有者&amp;quot;,&amp;quot;type&amp;quot;:&amp;quot;string&amp;quot;,&amp;quot;value&amp;quot;:&amp;quot;&amp;quot;,&amp;quot;category&amp;quot;:&amp;quot;default&amp;quot;,&amp;quot;id&amp;quot;:&amp;quot;kEPCoOZJYf526780&amp;quot;},{&amp;quot;name&amp;quot;:&amp;quot;连接&amp;quot;,&amp;quot;type&amp;quot;:&amp;quot;link&amp;quot;,&amp;quot;value&amp;quot;:&amp;quot;&amp;quot;,&amp;quot;category&amp;quot;:&amp;quot;default&amp;quot;,&amp;quot;id&amp;quot;:&amp;quot;LzFSdFNNpK307714&amp;quot;},{&amp;quot;name&amp;quot;:&amp;quot;便笺&amp;quot;,&amp;quot;type&amp;quot;:&amp;quot;string&amp;quot;,&amp;quot;value&amp;quot;:&amp;quot;&amp;quot;,&amp;quot;category&amp;quot;:&amp;quot;default&amp;quot;,&amp;quot;id&amp;quot;:&amp;quot;GIddAeIInh844619&amp;quot;}],&amp;quot;props&amp;quot;:{&amp;quot;x&amp;quot;:1559.8336650548385,&amp;quot;y&amp;quot;:5818.446432263954,&amp;quot;w&amp;quot;:96,&amp;quot;h&amp;quot;:54,&amp;quot;zindex&amp;quot;:834,&amp;quot;angle&amp;quot;:0},&amp;quot;shapeStyle&amp;quot;:{&amp;quot;alpha&amp;quot;:1},&amp;quot;lineStyle&amp;quot;:{&amp;quot;lineStyle&amp;quot;:&amp;quot;dashed&amp;quot;,&amp;quot;lineColor&amp;quot;:&amp;quot;0,127,255&amp;quot;,&amp;quot;lineWidth&amp;quot;:1.5},&amp;quot;fillStyle&amp;quot;:{&amp;quot;type&amp;quot;:&amp;quot;none&amp;quot;},&amp;quot;theme&amp;quot;:{},&amp;quot;path&amp;quot;:[{&amp;quot;actions&amp;quot;:[{&amp;quot;action&amp;quot;:&amp;quot;move&amp;quot;,&amp;quot;x&amp;quot;:&amp;quot;0&amp;quot;,&amp;quot;y&amp;quot;:&amp;quot;0&amp;quot;},{&amp;quot;action&amp;quot;:&amp;quot;line&amp;quot;,&amp;quot;x&amp;quot;:&amp;quot;w&amp;quot;,&amp;quot;y&amp;quot;:&amp;quot;0&amp;quot;},{&amp;quot;action&amp;quot;:&amp;quot;line&amp;quot;,&amp;quot;x&amp;quot;:&amp;quot;w&amp;quot;,&amp;quot;y&amp;quot;:&amp;quot;h&amp;quot;},{&amp;quot;action&amp;quot;:&amp;quot;line&amp;quot;,&amp;quot;x&amp;quot;:&amp;quot;0&amp;quot;,&amp;quot;y&amp;quot;:&amp;quot;h&amp;quot;},{&amp;quot;action&amp;quot;:&amp;quot;close&amp;quot;}]}],&amp;quot;fontStyle&amp;quot;:{},&amp;quot;textBlock&amp;quot;:[{&amp;quot;position&amp;quot;:{&amp;quot;x&amp;quot;:10,&amp;quot;y&amp;quot;:0,&amp;quot;w&amp;quot;:&amp;quot;w-20&amp;quot;,&amp;quot;h&amp;quot;:&amp;quot;h&amp;quot;},&amp;quot;text&amp;quot;:&amp;quot;oss-url&amp;quot;}],&amp;quot;anchors&amp;quot;:[{&amp;quot;x&amp;quot;:&amp;quot;w/2&amp;quot;,&amp;quot;y&amp;quot;:&amp;quot;0&amp;quot;},{&amp;quot;x&amp;quot;:&amp;quot;w/2&amp;quot;,&amp;quot;y&amp;quot;:&amp;quot;h&amp;quot;},{&amp;quot;x&amp;quot;:&amp;quot;0&amp;quot;,&amp;quot;y&amp;quot;:&amp;quot;h/2&amp;quot;},{&amp;quot;x&amp;quot;:&amp;quot;w&amp;quot;,&amp;quot;y&amp;quot;:&amp;quot;h/2&amp;quot;}]},{&amp;quot;id&amp;quot;:&amp;quot;FYEkpxFewa563072&amp;quot;,&amp;quot;name&amp;quot;:&amp;quot;linker&amp;quot;,&amp;quot;text&amp;quot;:&amp;quot;对象地址&amp;quot;,&amp;quot;group&amp;quot;:&amp;quot;&amp;quot;,&amp;quot;linkerType&amp;quot;:&amp;quot;broken&amp;quot;,&amp;quot;points&amp;quot;:[{&amp;quot;x&amp;quot;:1791.8227028176677,&amp;quot;y&amp;quot;:5845.446432263954}],&amp;quot;locked&amp;quot;:false,&amp;quot;dataAttributes&amp;quot;:[],&amp;quot;props&amp;quot;:{&amp;quot;zindex&amp;quot;:835},&amp;quot;lineStyle&amp;quot;:{&amp;quot;lineWidth&amp;quot;:1.5},&amp;quot;from&amp;quot;:{&amp;quot;x&amp;quot;:1791.8227028176677,&amp;quot;y&amp;quot;:5993.1662264972165,&amp;quot;angle&amp;quot;:1.570796326794897,&amp;quot;id&amp;quot;:&amp;quot;NHBoHYEhZG973536&amp;quot;},&amp;quot;to&amp;quot;:{&amp;quot;id&amp;quot;:&amp;quot;ElKQDuCzPd562072&amp;quot;,&amp;quot;x&amp;quot;:1655.8336650548385,&amp;quot;y&amp;quot;:5845.446432263954,&amp;quot;angle&amp;quot;:3.1415926535897922},&amp;quot;textBlock&amp;quot;:[{&amp;quot;text&amp;quot;:&amp;quot;对象地址&amp;quot;,&amp;quot;location&amp;quot;:0.6892365516968615}],&amp;quot;textPos&amp;quot;:{&amp;quot;x&amp;quot;:1744.2265396006774,&amp;quot;y&amp;quot;:5845.446432263954,&amp;quot;t&amp;quot;:27}},{&amp;quot;id&amp;quot;:&amp;quot;RVEvTeDcik758558&amp;quot;,&amp;quot;name&amp;quot;:&amp;quot;linker&amp;quot;,&amp;quot;text&amp;quot;:&amp;quot;返回&amp;quot;,&amp;quot;group&amp;quot;:&amp;quot;&amp;quot;,&amp;quot;linkerType&amp;quot;:&amp;quot;broken&amp;quot;,&amp;quot;points&amp;quot;:[{&amp;quot;x&amp;quot;:1437.5705110010729,&amp;quot;y&amp;quot;:5845.446432263954},{&amp;quot;x&amp;quot;:1437.5705110010729,&amp;quot;y&amp;quot;:5845.446432263954}],&amp;quot;locked&amp;quot;:false,&amp;quot;dataAttributes&amp;quot;:[],&amp;quot;props&amp;quot;:{&amp;quot;zindex&amp;quot;:836},&amp;quot;lineStyle&amp;quot;:{&amp;quot;lineWidth&amp;quot;:1.5},&amp;quot;from&amp;quot;:{&amp;quot;x&amp;quot;:1559.8336650548385,&amp;quot;y&amp;quot;:5845.446432263954,&amp;quot;angle&amp;quot;:0,&amp;quot;id&amp;quot;:&amp;quot;ElKQDuCzPd562072&amp;quot;},&amp;quot;to&amp;quot;:{&amp;quot;id&amp;quot;:&amp;quot;CAiiVMFEOw481836&amp;quot;,&amp;quot;x&amp;quot;:1315.3073569473072,&amp;quot;y&amp;quot;:5845.446432263954,&amp;quot;angle&amp;quot;:3.1415926535897922},&amp;quot;textBlock&amp;quot;:[{&amp;quot;text&amp;quot;:&amp;quot;返回&amp;quot;,&amp;quot;location&amp;quot;:0.6536460894201662}],&amp;quot;textPos&amp;quot;:{&amp;quot;x&amp;quot;:1400.891564784943,&amp;quot;y&amp;quot;:5845.446432263954,&amp;quot;t&amp;quot;:46}},{&amp;quot;id&amp;quot;:&amp;quot;JyzNnQQjBZ207900&amp;quot;,&amp;quot;name&amp;quot;:&amp;quot;linker&amp;quot;,&amp;quot;text&amp;quot;:&amp;quot;&amp;quot;,&amp;quot;group&amp;quot;:&amp;quot;&amp;quot;,&amp;quot;linkerType&amp;quot;:&amp;quot;broken&amp;quot;,&amp;quot;points&amp;quot;:[{&amp;quot;x&amp;quot;:1267.3073569473072,&amp;quot;y&amp;quot;:5771.611608065989},{&amp;quot;x&amp;quot;:1267.3073569473072,&amp;quot;y&amp;quot;:5771.611608065989}],&amp;quot;locked&amp;quot;:false,&amp;quot;dataAttributes&amp;quot;:[],&amp;quot;props&amp;quot;:{&amp;quot;zindex&amp;quot;:837},&amp;quot;lineStyle&amp;quot;:{&amp;quot;lineWidth&amp;quot;:1.5},&amp;quot;from&amp;quot;:{&amp;quot;x&amp;quot;:1267.3073569473072,&amp;quot;y&amp;quot;:5814.723216131977,&amp;quot;id&amp;quot;:&amp;quot;CAiiVMFEOw481836&amp;quot;,&amp;quot;angle&amp;quot;:1.5707963267948963},&amp;quot;to&amp;quot;:{&amp;quot;id&amp;quot;:&amp;quot;oWIDGPhlWJ457018&amp;quot;,&amp;quot;x&amp;quot;:1267.3073569473072,&amp;quot;y&amp;quot;:5728.5,&amp;quot;angle&amp;quot;:4.71238898038469},&amp;quot;textBlock&amp;quot;:[]},{&amp;quot;id&amp;quot;:&amp;quot;oWIDGPhlWJ457018&amp;quot;,&amp;quot;name&amp;quot;:&amp;quot;rectangle&amp;quot;,&amp;quot;title&amp;quot;:&amp;quot;矩形&amp;quot;,&amp;quot;category&amp;quot;:&amp;quot;basic&amp;quot;,&amp;quot;group&amp;quot;:&amp;quot;&amp;quot;,&amp;quot;groupName&amp;quot;:null,&amp;quot;locked&amp;quot;:false,&amp;quot;link&amp;quot;:&amp;quot;&amp;quot;,&amp;quot;children&amp;quot;:[],&amp;quot;parent&amp;quot;:&amp;quot;&amp;quot;,&amp;quot;resizeDir&amp;quot;:[&amp;quot;tl&amp;quot;,&amp;quot;tr&amp;quot;,&amp;quot;br&amp;quot;,&amp;quot;bl&amp;quot;,&amp;quot;l&amp;quot;,&amp;quot;t&amp;quot;,&amp;quot;r&amp;quot;,&amp;quot;b&amp;quot;],&amp;quot;attribute&amp;quot;:{&amp;quot;container&amp;quot;:false,&amp;quot;visible&amp;quot;:true,&amp;quot;rotatable&amp;quot;:true,&amp;quot;linkable&amp;quot;:true,&amp;quot;collapsable&amp;quot;:false,&amp;quot;collapsed&amp;quot;:false,&amp;quot;fixedLink&amp;quot;:false,&amp;quot;markerOffset&amp;quot;:5},&amp;quot;dataAttributes&amp;quot;:[{&amp;quot;name&amp;quot;:&amp;quot;序号&amp;quot;,&amp;quot;type&amp;quot;:&amp;quot;number&amp;quot;,&amp;quot;value&amp;quot;:&amp;quot;&amp;quot;,&amp;quot;category&amp;quot;:&amp;quot;default&amp;quot;,&amp;quot;id&amp;quot;:&amp;quot;xsjpVnvFgm690156&amp;quot;},{&amp;quot;name&amp;quot;:&amp;quot;名称&amp;quot;,&amp;quot;type&amp;quot;:&amp;quot;string&amp;quot;,&amp;quot;value&amp;quot;:&amp;quot;&amp;quot;,&amp;quot;category&amp;quot;:&amp;quot;default&amp;quot;,&amp;quot;id&amp;quot;:&amp;quot;QTGjqfJohl394644&amp;quot;},{&amp;quot;name&amp;quot;:&amp;quot;所有者&amp;quot;,&amp;quot;type&amp;quot;:&amp;quot;string&amp;quot;,&amp;quot;value&amp;quot;:&amp;quot;&amp;quot;,&amp;quot;category&amp;quot;:&amp;quot;default&amp;quot;,&amp;quot;id&amp;quot;:&amp;quot;jVJTPPszBr037797&amp;quot;},{&amp;quot;name&amp;quot;:&amp;quot;连接&amp;quot;,&amp;quot;type&amp;quot;:&amp;quot;link&amp;quot;,&amp;quot;value&amp;quot;:&amp;quot;&amp;quot;,&amp;quot;category&amp;quot;:&amp;quot;default&amp;quot;,&amp;quot;id&amp;quot;:&amp;quot;fXrJvMtfzU084687&amp;quot;},{&amp;quot;name&amp;quot;:&amp;quot;便笺&amp;quot;,&amp;quot;type&amp;quot;:&amp;quot;string&amp;quot;,&amp;quot;value&amp;quot;:&amp;quot;&amp;quot;,&amp;quot;category&amp;quot;:&amp;quot;default&amp;quot;,&amp;quot;id&amp;quot;:&amp;quot;uxHJVJTLpK106849&amp;quot;}],&amp;quot;props&amp;quot;:{&amp;quot;x&amp;quot;:1219.3073569473072,&amp;quot;y&amp;quot;:5674.5,&amp;quot;w&amp;quot;:96,&amp;quot;h&amp;quot;:54,&amp;quot;zindex&amp;quot;:838,&amp;quot;angle&amp;quot;:0},&amp;quot;shapeStyle&amp;quot;:{&amp;quot;alpha&amp;quot;:1},&amp;quot;lineStyle&amp;quot;:{&amp;quot;lineStyle&amp;quot;:&amp;quot;dashed&amp;quot;,&amp;quot;lineColor&amp;quot;:&amp;quot;0,127,255&amp;quot;,&amp;quot;lineWidth&amp;quot;:1.5},&amp;quot;fillStyle&amp;quot;:{&amp;quot;type&amp;quot;:&amp;quot;none&amp;quot;},&amp;quot;theme&amp;quot;:{},&amp;quot;path&amp;quot;:[{&amp;quot;actions&amp;quot;:[{&amp;quot;action&amp;quot;:&amp;quot;move&amp;quot;,&amp;quot;x&amp;quot;:&amp;quot;0&amp;quot;,&amp;quot;y&amp;quot;:&amp;quot;0&amp;quot;},{&amp;quot;action&amp;quot;:&amp;quot;line&amp;quot;,&amp;quot;x&amp;quot;:&amp;quot;w&amp;quot;,&amp;quot;y&amp;quot;:&amp;quot;0&amp;quot;},{&amp;quot;action&amp;quot;:&amp;quot;line&amp;quot;,&amp;quot;x&amp;quot;:&amp;quot;w&amp;quot;,&amp;quot;y&amp;quot;:&amp;quot;h&amp;quot;},{&amp;quot;action&amp;quot;:&amp;quot;line&amp;quot;,&amp;quot;x&amp;quot;:&amp;quot;0&amp;quot;,&amp;quot;y&amp;quot;:&amp;quot;h&amp;quot;},{&amp;quot;action&amp;quot;:&amp;quot;close&amp;quot;}]}],&amp;quot;fontStyle&amp;quot;:{},&amp;quot;textBlock&amp;quot;:[{&amp;quot;position&amp;quot;:{&amp;quot;x&amp;quot;:10,&amp;quot;y&amp;quot;:0,&amp;quot;w&amp;quot;:&amp;quot;w-20&amp;quot;,&amp;quot;h&amp;quot;:&amp;quot;h&amp;quot;},&amp;quot;text&amp;quot;:&amp;quot;保存到当前目录&amp;quot;}],&amp;quot;anchors&amp;quot;:[{&amp;quot;x&amp;quot;:&amp;quot;w/2&amp;quot;,&amp;quot;y&amp;quot;:&amp;quot;0&amp;quot;},{&amp;quot;x&amp;quot;:&amp;quot;w/2&amp;quot;,&amp;quot;y&amp;quot;:&amp;quot;h&amp;quot;},{&amp;quot;x&amp;quot;:&amp;quot;0&amp;quot;,&amp;quot;y&amp;quot;:&amp;quot;h/2&amp;quot;},{&amp;quot;x&amp;quot;:&amp;quot;w&amp;quot;,&amp;quot;y&amp;quot;:&amp;quot;h/2&amp;quot;}]}]}&quot;&gt; &lt;/div&gt;" style="text;whiteSpace=wrap;html=1;" parent="1" vertex="1">
          <mxGeometry x="350" y="300" width="30" height="20" as="geometry" />
        </mxCell>
        <mxCell id="dTiAx6UK3Yj_eX1VGu5U-6" value="" style="edgeStyle=orthogonalEdgeStyle;rounded=0;orthogonalLoop=1;jettySize=auto;html=1;" parent="1" source="dTiAx6UK3Yj_eX1VGu5U-3" target="dTiAx6UK3Yj_eX1VGu5U-5" edge="1">
          <mxGeometry relative="1" as="geometry" />
        </mxCell>
        <mxCell id="dTiAx6UK3Yj_eX1VGu5U-3" value="server" style="rounded=0;whiteSpace=wrap;html=1;" parent="1" vertex="1">
          <mxGeometry x="120" y="360" width="120" height="60" as="geometry" />
        </mxCell>
        <mxCell id="dTiAx6UK3Yj_eX1VGu5U-7" style="edgeStyle=orthogonalEdgeStyle;rounded=0;orthogonalLoop=1;jettySize=auto;html=1;exitX=0.5;exitY=1;exitDx=0;exitDy=0;entryX=0.5;entryY=0;entryDx=0;entryDy=0;" parent="1" source="dTiAx6UK3Yj_eX1VGu5U-4" target="dTiAx6UK3Yj_eX1VGu5U-3" edge="1">
          <mxGeometry relative="1" as="geometry" />
        </mxCell>
        <mxCell id="dTiAx6UK3Yj_eX1VGu5U-8" value="调用/上传img[]strings" style="edgeLabel;html=1;align=center;verticalAlign=middle;resizable=0;points=[];" parent="dTiAx6UK3Yj_eX1VGu5U-7" vertex="1" connectable="0">
          <mxGeometry x="-0.1273" y="-2" relative="1" as="geometry">
            <mxPoint as="offset" />
          </mxGeometry>
        </mxCell>
        <mxCell id="dTiAx6UK3Yj_eX1VGu5U-18" style="edgeStyle=orthogonalEdgeStyle;rounded=0;orthogonalLoop=1;jettySize=auto;html=1;entryX=0;entryY=0.5;entryDx=0;entryDy=0;" parent="1" source="dTiAx6UK3Yj_eX1VGu5U-4" target="dTiAx6UK3Yj_eX1VGu5U-11" edge="1">
          <mxGeometry relative="1" as="geometry">
            <Array as="points">
              <mxPoint x="385" y="260" />
              <mxPoint x="385" y="290" />
            </Array>
          </mxGeometry>
        </mxCell>
        <mxCell id="dTiAx6UK3Yj_eX1VGu5U-19" value="get" style="edgeLabel;html=1;align=center;verticalAlign=middle;resizable=0;points=[];" parent="dTiAx6UK3Yj_eX1VGu5U-18" vertex="1" connectable="0">
          <mxGeometry x="0.4944" relative="1" as="geometry">
            <mxPoint as="offset" />
          </mxGeometry>
        </mxCell>
        <mxCell id="dTiAx6UK3Yj_eX1VGu5U-4" value="client" style="rounded=0;whiteSpace=wrap;html=1;" parent="1" vertex="1">
          <mxGeometry x="120" y="210" width="120" height="60" as="geometry" />
        </mxCell>
        <mxCell id="dTiAx6UK3Yj_eX1VGu5U-10" value="" style="edgeStyle=orthogonalEdgeStyle;rounded=0;orthogonalLoop=1;jettySize=auto;html=1;" parent="1" source="dTiAx6UK3Yj_eX1VGu5U-5" target="dTiAx6UK3Yj_eX1VGu5U-9" edge="1">
          <mxGeometry relative="1" as="geometry" />
        </mxCell>
        <mxCell id="dTiAx6UK3Yj_eX1VGu5U-5" value="/api/img/pull" style="rounded=0;whiteSpace=wrap;html=1;" parent="1" vertex="1">
          <mxGeometry x="320" y="360" width="120" height="60" as="geometry" />
        </mxCell>
        <mxCell id="dTiAx6UK3Yj_eX1VGu5U-12" value="" style="edgeStyle=orthogonalEdgeStyle;rounded=0;orthogonalLoop=1;jettySize=auto;html=1;" parent="1" source="dTiAx6UK3Yj_eX1VGu5U-9" target="dTiAx6UK3Yj_eX1VGu5U-11" edge="1">
          <mxGeometry relative="1" as="geometry" />
        </mxCell>
        <mxCell id="2" value="stream" style="edgeLabel;html=1;align=center;verticalAlign=middle;resizable=0;points=[];" parent="dTiAx6UK3Yj_eX1VGu5U-12" vertex="1" connectable="0">
          <mxGeometry x="-0.12" y="-1" relative="1" as="geometry">
            <mxPoint as="offset" />
          </mxGeometry>
        </mxCell>
        <mxCell id="dTiAx6UK3Yj_eX1VGu5U-9" value="save-upload" style="rounded=0;whiteSpace=wrap;html=1;" parent="1" vertex="1">
          <mxGeometry x="530" y="360" width="120" height="60" as="geometry" />
        </mxCell>
        <mxCell id="dTiAx6UK3Yj_eX1VGu5U-15" value="" style="edgeStyle=orthogonalEdgeStyle;rounded=0;orthogonalLoop=1;jettySize=auto;html=1;" parent="1" source="dTiAx6UK3Yj_eX1VGu5U-11" target="dTiAx6UK3Yj_eX1VGu5U-14" edge="1">
          <mxGeometry relative="1" as="geometry" />
        </mxCell>
        <mxCell id="dTiAx6UK3Yj_eX1VGu5U-11" value="oss" style="rounded=0;whiteSpace=wrap;html=1;" parent="1" vertex="1">
          <mxGeometry x="530" y="260" width="120" height="60" as="geometry" />
        </mxCell>
        <mxCell id="dTiAx6UK3Yj_eX1VGu5U-16" style="edgeStyle=orthogonalEdgeStyle;rounded=0;orthogonalLoop=1;jettySize=auto;html=1;exitX=0;exitY=0.5;exitDx=0;exitDy=0;" parent="1" source="dTiAx6UK3Yj_eX1VGu5U-14" edge="1">
          <mxGeometry relative="1" as="geometry">
            <mxPoint x="240" y="220" as="targetPoint" />
            <Array as="points">
              <mxPoint x="385" y="190" />
              <mxPoint x="385" y="220" />
              <mxPoint x="240" y="220" />
            </Array>
          </mxGeometry>
        </mxCell>
        <mxCell id="dTiAx6UK3Yj_eX1VGu5U-17" value="return" style="edgeLabel;html=1;align=center;verticalAlign=middle;resizable=0;points=[];" parent="dTiAx6UK3Yj_eX1VGu5U-16" vertex="1" connectable="0">
          <mxGeometry x="-0.129" y="1" relative="1" as="geometry">
            <mxPoint as="offset" />
          </mxGeometry>
        </mxCell>
        <mxCell id="dTiAx6UK3Yj_eX1VGu5U-14" value="oss-URL" style="rounded=0;whiteSpace=wrap;html=1;" parent="1" vertex="1">
          <mxGeometry x="530" y="160" width="120" height="60" as="geometry" />
        </mxCell>
      </root>
    </mxGraphModel>
  </diagram>
</mxfile>
